<svg width="203" height="60" viewBox="0 0 203 60" fill="none" xmlns="http://www.w3.org/2000/svg">
<g clip-path="url(#clip0_17_1339)">
<path d="M184.727 16.0673H187.448L193.075 6.12695H202.371L194.511 19.0769L202.331 32.7878H192.283L187.22 23.1539H184.727V32.7878H175.812V6.12695H184.727V16.0673Z" fill="#000072"/>
<path d="M197.419 40.5742H201.814V41.5387H200.192V45.6818H199.033V41.5387H197.419V40.5742Z" fill="#000072"/>
<path d="M194.236 42.6326H196.589V43.5521H194.236V44.7332H196.993V45.6844H193.069V40.5742H196.901V41.5202H194.236V42.6326Z" fill="#000072"/>
<path d="M187.935 40.5742H192.33V41.5387H190.707V45.6818H189.549V41.5387H187.935V40.5742Z" fill="#000072"/>
<path d="M187.196 45.6818H186.04V42.3631L183.621 45.6818H182.513V40.5742H183.679V43.9035L186.095 40.5742H187.196V45.6818Z" fill="#000072"/>
<path d="M181.748 41.391L180.993 42.0913C180.838 41.902 180.644 41.7501 180.423 41.6467C180.203 41.5434 179.962 41.4912 179.719 41.4941C179.426 41.4884 179.136 41.5604 178.878 41.7028C178.637 41.8377 178.438 42.0382 178.304 42.2815C178.169 42.5429 178.098 42.8334 178.098 43.1284C178.098 43.4233 178.169 43.7138 178.304 43.9752C178.438 44.2185 178.637 44.419 178.878 44.5539C179.135 44.6971 179.425 44.77 179.719 44.7653C179.963 44.7678 180.205 44.7144 180.425 44.6092C180.646 44.5039 180.84 44.3495 180.993 44.1575L181.748 44.8577C181.506 45.1534 181.198 45.3863 180.849 45.5368C180.471 45.6977 180.064 45.7778 179.654 45.772C179.165 45.7788 178.683 45.6616 178.252 45.4311C177.844 45.214 177.504 44.8876 177.269 44.4878C177.033 44.0737 176.909 43.6045 176.909 43.127C176.909 42.6496 177.033 42.1804 177.269 41.7662C177.505 41.3678 177.845 41.0424 178.252 40.8256C178.684 40.5923 179.168 40.4724 179.659 40.4768C180.069 40.4716 180.476 40.5507 180.854 40.7093C181.2 40.8596 181.506 41.0895 181.748 41.3805" fill="#000072"/>
<path d="M176.14 41.4418C176.315 41.7398 176.408 42.0798 176.408 42.4261C176.408 42.7724 176.315 43.1124 176.14 43.4104C175.955 43.6967 175.688 43.9203 175.375 44.0524C175.006 44.2076 174.609 44.2832 174.209 44.2744H173.187V45.6827H172.013V40.5752H174.209C174.609 40.5647 175.007 40.6413 175.375 40.7998C175.686 40.9351 175.952 41.1581 176.14 41.4418ZM175.221 42.4301C175.23 42.3067 175.211 42.1829 175.165 42.068C175.12 41.9532 175.049 41.8502 174.958 41.7668C174.725 41.5983 174.44 41.5179 174.154 41.5396H173.2V43.3126H174.154C174.44 43.3307 174.724 43.2496 174.958 43.0827C175.049 43.0016 175.12 42.9005 175.165 42.7873C175.211 42.6741 175.23 42.5519 175.221 42.4301Z" fill="#000072"/>
<path d="M148.196 11.9531H156.696V21.3624L163.837 11.9531H171.694V32.7877H163.192V23.3441L156.09 32.7877H148.196V11.9531Z" fill="#000072"/>
<path d="M168.308 42.6328H170.661V43.5523H168.308V44.7334H171.065V45.6847H167.142V40.5745H170.973V41.5204H168.308V42.6328Z" fill="#000072"/>
<path d="M166.216 44.2475C166.224 44.4525 166.181 44.6564 166.092 44.8408C166.003 45.0252 165.87 45.1845 165.704 45.3044C165.27 45.5842 164.759 45.7166 164.245 45.6823H161.747V40.5747H164.106C164.589 40.5452 165.07 40.6651 165.484 40.9182C165.643 41.0245 165.771 41.1704 165.857 41.3418C165.943 41.5132 165.984 41.7041 165.974 41.8958C165.98 42.1319 165.914 42.364 165.786 42.5617C165.656 42.76 165.475 42.9182 165.262 43.0188C165.538 43.093 165.786 43.2507 165.972 43.4706C166.139 43.6937 166.226 43.9678 166.218 44.2475M165.028 44.1497C165.028 43.7269 164.766 43.5156 164.203 43.5156H162.916V44.8076H164.203C164.756 44.8076 165.028 44.5883 165.028 44.1497ZM164.588 42.5353C164.649 42.4769 164.697 42.4069 164.731 42.3295C164.764 42.252 164.783 42.1686 164.784 42.0841C164.785 41.9996 164.77 41.9156 164.739 41.837C164.708 41.7584 164.662 41.6868 164.604 41.6263L164.588 41.6105C164.42 41.4921 164.216 41.4353 164.011 41.4493H162.919V42.6912H164.011C164.216 42.7052 164.42 42.6504 164.591 42.5353" fill="#000072"/>
<path d="M160.487 45.682H159.331V42.3633L156.912 45.682H155.804V40.5745H156.97V43.9038L159.389 40.5745H160.487V45.682Z" fill="#000072"/>
<path d="M155.757 53.9043V50.583L153.338 53.9043H152.229V48.7969H153.396V52.1261L155.815 48.7969H156.918V53.9043H155.757Z" fill="#000072"/>
<path d="M149.886 40.5742H151.06V42.5877H153.364V40.5742H154.538V45.6818H153.364V43.5864H151.06V45.6818H149.886V40.5742Z" fill="#000072"/>
<path d="M149.813 53.9043V50.583L147.397 53.9043H146.288V48.7969H147.454V52.1261L149.873 48.7969H150.971V53.9043H149.813Z" fill="#000072"/>
<path d="M149.33 40.5742L147.173 44.6169C146.997 44.9685 146.74 45.2722 146.423 45.5021C146.144 45.6971 145.812 45.8013 145.472 45.8007C145.188 45.7971 144.908 45.7379 144.646 45.6263L144.93 44.7279C145.093 44.7834 145.263 44.8154 145.435 44.823C145.573 44.824 145.708 44.7875 145.826 44.7173C145.954 44.6304 146.063 44.5169 146.146 44.3844L146.187 44.3263L144.19 40.5742H145.443L146.79 43.3196L148.179 40.5742H149.33Z" fill="#000072"/>
<path d="M134.519 6.12695L146.087 32.7878H136.862L135.079 28.1426H125.037L123.262 32.7878H114.194L125.755 6.12695H134.519ZM132.632 21.6663L130.063 14.9628L127.492 21.6663H132.632Z" fill="#000072"/>
<path d="M144.727 49.7536C145.144 50.1461 145.389 50.6895 145.408 51.2642C145.428 51.839 145.221 52.3981 144.832 52.8186C144.798 52.8556 144.763 52.8899 144.727 52.9243C144.271 53.3101 143.618 53.5267 142.764 53.5716V54.1239H141.684V53.5637C140.824 53.5135 140.167 53.2995 139.711 52.9084C139.294 52.5205 139.047 51.982 139.024 51.4108C139.001 50.8397 139.204 50.2827 139.587 49.8619C139.627 49.8197 139.669 49.7774 139.711 49.7377C140.167 49.3572 140.824 49.1379 141.684 49.0851V48.5566H142.764V49.0851C143.618 49.1327 144.271 49.3493 144.727 49.743M143.906 52.2426C144.035 52.1273 144.135 51.9842 144.201 51.824C144.266 51.6638 144.294 51.4907 144.284 51.3178C144.284 50.5383 143.775 50.1076 142.764 50.0205V52.6389C143.176 52.6272 143.574 52.489 143.906 52.2426ZM141.684 52.6389V50.0205C141.271 50.0315 140.871 50.1678 140.536 50.4115C140.409 50.5252 140.309 50.6667 140.245 50.8251C140.18 50.9836 140.153 51.1548 140.164 51.3257C140.164 52.0946 140.672 52.5332 141.684 52.6468" fill="#000072"/>
<path d="M141.447 45.6818H140.288V42.3631L137.869 45.6818H136.761V40.5742H137.927V43.9035L140.346 40.5742H141.447V45.6818Z" fill="#000072"/>
<path d="M139.694 39.1289H140.507C140.515 39.2855 140.486 39.4418 140.424 39.5857C140.362 39.7296 140.267 39.8572 140.147 39.9586C139.862 40.1575 139.52 40.2578 139.173 40.244V39.66C139.309 39.6572 139.44 39.6098 139.546 39.5253C139.599 39.4741 139.641 39.4124 139.669 39.3441C139.697 39.2759 139.71 39.2026 139.707 39.1289" fill="#000072"/>
<path d="M139.173 39.6607V40.2446H139.089C138.162 40.2446 137.695 39.8694 137.685 39.127H138.487C138.487 39.481 138.699 39.6554 139.089 39.6554H139.16" fill="#000072"/>
<path d="M136.54 48.7969L138.807 53.9043H137.578L137.127 52.8105H134.769L134.32 53.9043H133.12L135.377 48.7969H136.54ZM136.76 51.9121L135.953 49.9568L135.151 51.9121H136.76Z" fill="#000072"/>
<path d="M135.503 40.5745H134.337V45.682H135.503V40.5745Z" fill="#000072"/>
<path d="M133.693 43.9114C133.708 44.159 133.667 44.4069 133.573 44.636C133.478 44.8651 133.333 45.0692 133.148 45.2326C132.703 45.5605 132.159 45.7213 131.609 45.6871H129.313V40.5742H130.48V42.2521H131.769C132.277 42.2196 132.78 42.3663 133.192 42.6669C133.363 42.8211 133.497 43.0128 133.582 43.2272C133.668 43.4415 133.704 43.6729 133.688 43.9035M132.506 43.9247C132.506 43.3962 132.186 43.132 131.539 43.132H130.49V44.8125H131.539C131.795 44.8284 132.049 44.7484 132.251 44.5879C132.34 44.5043 132.41 44.4021 132.455 44.2883C132.5 44.1746 132.52 44.0523 132.513 43.9299" fill="#000072"/>
<path d="M132.905 49.6671C133.077 49.9658 133.167 50.3049 133.167 50.65C133.167 50.9952 133.077 51.3343 132.905 51.633C132.719 51.9187 132.453 52.1422 132.14 52.275C131.771 52.4314 131.374 52.5071 130.974 52.497H129.952V53.9053H128.788V48.7978H130.982C131.382 48.7873 131.78 48.8639 132.148 49.0224C132.46 49.1572 132.726 49.3813 132.913 49.6671M131.996 50.65C132.002 50.5259 131.981 50.4019 131.933 50.2875C131.884 50.173 131.811 50.0711 131.718 49.9895C131.485 49.8226 131.202 49.7414 130.916 49.7596H129.96V51.5352H130.916C131.202 51.5537 131.486 51.4715 131.718 51.3027C131.812 51.2232 131.885 51.1228 131.934 51.0095C131.982 50.8962 132.003 50.7731 131.996 50.65Z" fill="#000072"/>
<path d="M125.646 49.7589L125.652 53.9046H124.485V48.7971H128.063L128.055 49.7589H125.646Z" fill="#000072"/>
<path d="M123.403 40.5745H124.577V42.5879H126.878V40.5745H128.053V45.682H126.878V43.5867H124.577V45.682H123.403V40.5745Z" fill="#000072"/>
<path d="M123.219 49.997C123.396 50.2895 123.514 50.6143 123.567 50.9528C123.619 51.2913 123.605 51.637 123.525 51.9699C123.445 52.3029 123.3 52.6167 123.1 52.8934C122.899 53.1701 122.647 53.4043 122.357 53.5826C122.317 53.6064 122.278 53.6301 122.236 53.6513C121.795 53.8754 121.308 53.9922 120.814 53.9922C120.32 53.9922 119.834 53.8754 119.393 53.6513C118.983 53.4335 118.64 53.1063 118.402 52.7054C118.166 52.2936 118.042 51.8266 118.042 51.3512C118.042 50.8758 118.166 50.4088 118.402 49.997C118.639 49.5963 118.982 49.2698 119.393 49.0538C119.832 48.8259 120.32 48.707 120.814 48.707C121.309 48.707 121.796 48.8259 122.236 49.0538C122.645 49.2712 122.988 49.5974 123.227 49.997M122.401 51.3499C122.407 51.0546 122.335 50.763 122.194 50.5044C122.063 50.2608 121.866 50.0601 121.625 49.9257C121.378 49.7866 121.099 49.7137 120.816 49.7137C120.532 49.7137 120.253 49.7866 120.006 49.9257C119.767 50.0616 119.57 50.262 119.437 50.5044C119.302 50.7657 119.231 51.0563 119.231 51.3512C119.231 51.6461 119.302 51.9367 119.437 52.198C119.57 52.4407 119.767 52.6417 120.006 52.7793C120.255 52.9146 120.533 52.9855 120.816 52.9855C121.098 52.9855 121.377 52.9146 121.625 52.7793C121.865 52.6432 122.062 52.4417 122.194 52.198C122.335 51.9384 122.407 51.646 122.401 51.3499Z" fill="#000072"/>
<path d="M117.487 40.5742H118.661V42.5877H120.962V40.5742H122.137V45.6818H120.962V43.5864H118.661V45.6818H117.487V40.5742Z" fill="#000072"/>
<path d="M118.765 6.12695V13.0947H107.396V32.7878H98.6318V6.12695H118.765Z" fill="#000072"/>
<path d="M117.724 48.7969V49.7587H116.105V53.9043H114.944V49.7587H113.329V48.7969H117.724Z" fill="#000072"/>
<path d="M113.782 42.6326H116.136V43.5521H113.782V44.7332H116.542V45.6844H112.616V40.5742H116.448V41.5202H113.782V42.6326Z" fill="#000072"/>
<path d="M112.947 49.6671C113.119 49.9658 113.209 50.3049 113.209 50.65C113.209 50.9952 113.119 51.3343 112.947 51.633C112.761 51.9187 112.494 52.1422 112.182 52.275C111.813 52.4314 111.416 52.5071 111.016 52.497H109.991V53.9053H108.819V48.7978H111.016C111.416 48.7873 111.814 48.8639 112.182 49.0224C112.494 49.1572 112.76 49.3813 112.947 49.6671ZM112.017 50.65C112.027 50.5258 112.009 50.4009 111.963 50.2849C111.918 50.169 111.846 50.0652 111.755 49.9816C111.521 49.8147 111.238 49.7335 110.953 49.7517H109.993V51.5273H110.953C111.238 51.5485 111.521 51.4691 111.755 51.3027C111.848 51.2229 111.921 51.1224 111.969 51.0091C112.016 50.8958 112.037 50.7729 112.03 50.65" fill="#000072"/>
<path d="M111.688 44.2471C111.696 44.4519 111.654 44.6556 111.565 44.84C111.476 45.0244 111.344 45.1839 111.179 45.3041C110.745 45.5839 110.233 45.7163 109.719 45.6819H107.222V40.5743H109.58C110.064 40.5462 110.544 40.666 110.959 40.9178C111.116 41.0254 111.244 41.1716 111.33 41.3427C111.415 41.5137 111.456 41.704 111.449 41.8955C111.454 42.1315 111.388 42.3637 111.26 42.5613C111.131 42.7596 110.949 42.9179 110.736 43.0185C111.012 43.0927 111.259 43.2504 111.444 43.4703C111.611 43.6933 111.698 43.9674 111.69 44.2471M110.503 44.1494C110.503 43.7266 110.241 43.5152 109.677 43.5152H108.391V44.8073H109.677C110.23 44.8073 110.503 44.588 110.503 44.1494ZM110.063 42.5349C110.123 42.4765 110.172 42.4066 110.205 42.3291C110.239 42.2517 110.257 42.1683 110.259 42.0838C110.26 41.9992 110.245 41.9152 110.214 41.8367C110.183 41.7581 110.137 41.6865 110.078 41.626L110.063 41.6101C109.894 41.4918 109.691 41.4349 109.486 41.4489H108.393V42.6908H109.486C109.691 42.7049 109.895 42.6501 110.065 42.5349" fill="#000072"/>
<path d="M105.877 48.7969L108.144 53.9043H106.915L106.467 52.8105H104.108L103.657 53.9043H102.58L102.507 53.7907L104.716 48.7969H105.877ZM106.097 51.9121L105.293 49.9568L104.488 51.9121H106.097Z" fill="#000072"/>
<path d="M102.091 40.5745H106.486V41.5389H104.864V45.682H103.703V41.5389H102.091V40.5745Z" fill="#000072"/>
<path d="M102.464 53.9046L102.514 53.791L102.587 53.9046H102.464Z" fill="#000072"/>
<path d="M101.252 53.9046L99.9341 51.8463H99.1243V53.9046H97.958V48.7971H99.1243V50.8634H99.9655L101.297 48.7971H102.537L100.878 51.2623L102.513 53.791L102.463 53.9046H101.252Z" fill="#000072"/>
<path d="M101.894 41.3904L101.142 42.0906C100.988 41.9013 100.793 41.7494 100.572 41.6461C100.352 41.5427 100.111 41.4906 99.8683 41.4934C99.5746 41.4878 99.2846 41.5598 99.027 41.7022C98.785 41.837 98.5853 42.0375 98.4505 42.2808C98.3167 42.5428 98.2469 42.8331 98.2469 43.1277C98.2469 43.4223 98.3167 43.7126 98.4505 43.9746C98.5853 44.2179 98.785 44.4184 99.027 44.5532C99.2844 44.6965 99.5744 44.7693 99.8683 44.7646C100.112 44.7672 100.354 44.7138 100.575 44.6085C100.795 44.5032 100.989 44.3488 101.142 44.1569L101.894 44.8571C101.654 45.154 101.345 45.3872 100.995 45.5362C100.617 45.6971 100.21 45.7772 99.8002 45.7713C99.3126 45.7789 98.8311 45.6616 98.4007 45.4305C97.9923 45.2136 97.6513 44.8871 97.4152 44.4872C97.1821 44.0722 97.0596 43.6033 97.0596 43.1264C97.0596 42.6494 97.1821 42.1806 97.4152 41.7656C97.6514 41.3664 97.9925 41.0409 98.4007 40.8249C98.8342 40.5949 99.3182 40.4786 99.808 40.4867C100.217 40.4815 100.623 40.5606 101 40.7192C101.347 40.8686 101.653 41.0986 101.894 41.3904Z" fill="#000072"/>
<path d="M96.2908 41.4419C96.4645 41.7403 96.5561 42.0801 96.5561 42.4261C96.5561 42.7721 96.4645 43.1119 96.2908 43.4104C96.1045 43.6961 95.8381 43.9196 95.5256 44.0524C95.1559 44.2088 94.7575 44.2845 94.3567 44.2744H93.3372V45.6827H92.1631V40.5752H94.3567C94.7578 40.5646 95.1564 40.6412 95.5256 40.7998C95.8357 40.9367 96.101 41.1593 96.2908 41.4419ZM95.3709 42.4301C95.3785 42.3057 95.3576 42.1812 95.3099 42.0662C95.2622 41.9512 95.1889 41.8488 95.0957 41.7669C94.8623 41.5983 94.5775 41.5179 94.2912 41.5396H93.3372V43.3126H94.2912C94.5775 43.3307 94.8614 43.2496 95.0957 43.0827C95.1876 43.002 95.2602 42.9014 95.3078 42.7883C95.3555 42.6753 95.3771 42.5528 95.3709 42.4301Z" fill="#000072"/>
<path d="M93.5044 53.9043V50.583L91.0881 53.9043H89.9795V48.7969H91.1457V52.1261L93.5647 48.7969H94.6628V53.9043H93.5044Z" fill="#000072"/>
<path d="M76.4544 19.9909L78.7606 16.4766L85.787 6.12671H93.9455V32.7875H85.1816V18.963L76.1163 32.7875H67.7638H67.6904V6.12671H76.4544V19.8746V19.9909Z" fill="#000072"/>
<path d="M89.2146 40.5742L91.479 45.6818H90.263L89.8122 44.5879H87.4535L87.0053 45.6818H85.8076L88.0641 40.5742H89.2146ZM89.4322 43.6921L88.625 41.7342L87.823 43.6921H89.4322Z" fill="#000072"/>
<path d="M85.5149 53.9043V50.583L83.0959 53.9043H81.9873V48.7969H83.1562V52.1261L85.5725 48.7969H86.6733V53.9043H85.5149Z" fill="#000072"/>
<path d="M85.5459 44.7205V46.7418H84.4583V45.6849H80.8835V46.7418H79.7959V44.7205H80.0003C80.3043 44.7205 80.5245 44.4853 80.6424 44.0467C80.792 43.4334 80.8703 42.8047 80.8757 42.1733L80.9333 40.5879H84.8278V44.7337L85.5459 44.7205ZM83.6773 44.7205V41.5338H81.9397L81.9187 42.2763C81.9035 42.7884 81.8528 43.2987 81.7667 43.8036C81.723 44.1321 81.6007 44.445 81.4103 44.7152L83.6773 44.7205Z" fill="#000072"/>
<path d="M79.5709 53.9043V50.583L77.1519 53.9043H76.0459V48.7969H77.2095V52.1261L79.6285 48.7969H80.7292V53.9043H79.5709Z" fill="#000072"/>
<path d="M79.8396 40.5742L77.6827 44.6169C77.5072 44.9685 77.25 45.2722 76.9331 45.5021C76.6536 45.6971 76.3217 45.8013 75.9818 45.8007C75.698 45.7971 75.4176 45.7379 75.1562 45.6263L75.4366 44.7279C75.6009 44.7832 75.7721 44.8152 75.9451 44.823C76.0823 44.824 76.2173 44.7875 76.3356 44.7173C76.4643 44.6304 76.5732 44.5169 76.6553 44.3844L76.6972 44.3263L74.7002 40.5742H75.9529L77.2974 43.3196L78.689 40.5742H79.8396Z" fill="#000072"/>
<path d="M74.8651 51.719C75.0369 51.9463 75.1255 52.2263 75.1159 52.5119C75.1064 52.7974 74.9992 53.0708 74.8127 53.2859C74.5878 53.5302 74.3045 53.7122 73.9898 53.8143C73.6258 53.9416 73.2428 54.0041 72.8576 53.9993C72.5041 53.999 72.152 53.9546 71.8093 53.8672C71.4656 53.7801 71.1356 53.6449 70.8291 53.4655L71.1908 52.6174C71.4185 52.7578 71.6659 52.8629 71.9246 52.9292C72.181 52.9985 72.4453 53.034 72.7108 53.0349C73.0112 53.0451 73.3093 52.9797 73.5783 52.8446C73.6796 52.7987 73.7657 52.7246 73.8266 52.631C73.8874 52.5373 73.9204 52.4281 73.9216 52.3162C73.924 52.2301 73.9033 52.1449 73.8618 52.0696C73.8203 51.9943 73.7595 51.9316 73.6858 51.8881C73.4902 51.7804 73.2689 51.7292 73.0463 51.7402H71.8067V50.8497H72.965C73.1607 50.8608 73.355 50.81 73.5207 50.7044C73.5838 50.659 73.6348 50.5986 73.6691 50.5285C73.7034 50.4584 73.7199 50.3809 73.7172 50.3028C73.7167 50.2059 73.6898 50.1111 73.6394 50.0286C73.589 49.9461 73.5171 49.8792 73.4315 49.8351C73.2062 49.7138 72.9529 49.6554 72.6977 49.666C72.4651 49.6689 72.2337 49.7 72.0085 49.7585C71.7736 49.8169 71.5472 49.9057 71.3349 50.0227L70.9785 49.1032C71.5162 48.8234 72.1136 48.6801 72.7187 48.6857C73.091 48.6836 73.4611 48.7435 73.8142 48.8627C74.1155 48.9614 74.3864 49.1371 74.6004 49.3727C74.7963 49.5888 74.9023 49.8726 74.8966 50.1654C74.9021 50.3985 74.8332 50.6273 74.7 50.818C74.5697 51.0104 74.388 51.1616 74.1759 51.254C74.4475 51.341 74.6874 51.5075 74.8651 51.7322" fill="#000072"/>
<path d="M74.5987 41.3904L73.8465 42.0906C73.6921 41.9013 73.4974 41.7494 73.277 41.6461C73.0566 41.5427 72.8159 41.4906 72.5728 41.4934C72.2791 41.4878 71.9891 41.5598 71.7316 41.7022C71.489 41.8362 71.289 42.0369 71.155 42.2808C71.0195 42.5422 70.9487 42.8328 70.9487 43.1277C70.9487 43.4226 71.0195 43.7132 71.155 43.9746C71.289 44.2185 71.489 44.4192 71.7316 44.5532C71.9889 44.6965 72.2789 44.7693 72.5728 44.7646C72.8169 44.7672 73.0584 44.7138 73.279 44.6085C73.4997 44.5032 73.6937 44.3488 73.8465 44.1569L74.5987 44.8571C74.3584 45.1528 74.051 45.3857 73.7024 45.5362C73.3244 45.6969 72.9175 45.7769 72.5073 45.7713C72.019 45.7782 71.5368 45.6609 71.1052 45.4305C70.6965 45.215 70.356 44.8882 70.1224 44.4872C69.8855 44.0734 69.7607 43.6041 69.7607 43.1264C69.7607 42.6486 69.8855 42.1793 70.1224 41.7656C70.3561 41.3654 70.6967 41.0395 71.1052 40.8249C71.5387 40.5949 72.0227 40.4786 72.5126 40.4867C72.9216 40.4815 73.3274 40.5606 73.705 40.7192C74.0508 40.8695 74.3569 41.0994 74.5987 41.3904Z" fill="#000072"/>
<path d="M69.94 50.8552V51.7747H67.5891V52.9558H70.3462V53.9043H66.4229V48.7969H70.2544V49.7454H67.5891V50.8552H69.94Z" fill="#000072"/>
<path d="M68.84 41.7732C69.0768 42.1846 69.2016 42.6517 69.2016 43.1274C69.2016 43.603 69.0768 44.0702 68.84 44.4816C68.6017 44.8812 68.2602 45.2082 67.852 45.4275C67.4113 45.6527 66.9243 45.77 66.4302 45.77C65.9362 45.77 65.4491 45.6527 65.0084 45.4275C64.5971 45.2106 64.2534 44.8832 64.0152 44.4816C63.7794 44.0698 63.6553 43.6028 63.6553 43.1274C63.6553 42.652 63.7794 42.1849 64.0152 41.7732C64.2534 41.3715 64.5971 41.0442 65.0084 40.8273C65.4494 40.6031 65.9364 40.4863 66.4302 40.4863C66.9241 40.4863 67.411 40.6031 67.852 40.8273C68.2602 41.0466 68.6017 41.3735 68.84 41.7732ZM68.0145 43.1181C68.0197 42.8232 67.9493 42.532 67.8101 42.2726C67.6769 42.03 67.4802 41.8289 67.2414 41.6913C66.9921 41.556 66.7134 41.4852 66.4302 41.4852C66.1471 41.4852 65.8684 41.556 65.6191 41.6913C65.3803 41.8289 65.1836 42.03 65.0504 42.2726C64.9149 42.534 64.8441 42.8245 64.8441 43.1194C64.8441 43.4144 64.9149 43.7049 65.0504 43.9663C65.1851 44.2098 65.3849 44.4103 65.627 44.545C65.8751 44.684 66.1542 44.757 66.4381 44.757C66.7219 44.757 67.0011 44.684 67.2492 44.545C67.4884 44.4091 67.6853 44.2087 67.8179 43.9663C67.9584 43.7064 68.0289 43.414 68.0224 43.1181" fill="#000072"/>
<path d="M65.6286 52.943V54.9643H64.5435V53.9075H60.9688V54.9643H59.8838V52.943H60.0856C60.3896 52.943 60.6097 52.7105 60.7303 52.2719C60.879 51.6577 60.9564 51.0281 60.9609 50.3959L61.0212 48.8105H64.9157V52.9562L65.6286 52.943ZM63.7626 52.943V49.7591H62.025L62.0014 50.5042C61.9875 51.0172 61.9367 51.5285 61.8494 52.0341C61.8077 52.3619 61.6862 52.6742 61.4956 52.943H63.7626Z" fill="#000072"/>
<path d="M63.8029 41.5387H61.3918L61.3996 45.6818H60.2334V40.5742H63.8108L63.8029 41.5387Z" fill="#000072"/>
<path d="M36.749 6.12695H45.5129V19.9911L54.6202 6.12695H63.0041V32.7878H54.2402V18.9632L45.1749 32.7878H36.749V6.12695Z" fill="#000072"/>
<path d="M59.2821 49.997C59.6383 50.5881 59.7471 51.2977 59.5844 51.9696C59.4217 52.6415 59.0009 53.2208 58.4146 53.5799L58.2888 53.6513C57.8479 53.8754 57.3609 53.9922 56.8671 53.9922C56.3732 53.9922 55.8863 53.8754 55.4453 53.6513C55.0353 53.4335 54.6925 53.1063 54.4546 52.7053C54.2189 52.2936 54.0947 51.8266 54.0947 51.3512C54.0947 50.8758 54.2189 50.4088 54.4546 49.997C54.692 49.5963 55.0349 49.2698 55.4453 49.0538C55.8851 48.8259 56.3725 48.707 56.8671 48.707C57.3616 48.707 57.849 48.8259 58.2888 49.0538C58.6982 49.2712 59.0408 49.5974 59.2795 49.997M58.454 51.3499C58.4592 51.055 58.3888 50.7637 58.2495 50.5044C58.1154 50.2631 57.9189 50.0631 57.6808 49.9257C57.4326 49.7871 57.1535 49.7144 56.8697 49.7144C56.5859 49.7144 56.3068 49.7871 56.0586 49.9257C55.818 50.0607 55.6201 50.2613 55.4872 50.5044C55.3534 50.7663 55.2836 51.0566 55.2836 51.3512C55.2836 51.6458 55.3534 51.9361 55.4872 52.198C55.6214 52.4408 55.819 52.6418 56.0586 52.7793C56.3055 52.9195 56.585 52.9907 56.8684 52.9854C57.1523 52.989 57.4323 52.918 57.6808 52.7793C57.9185 52.6403 58.1149 52.4395 58.2495 52.198C58.3885 51.9376 58.4589 51.6456 58.454 51.3499Z" fill="#000072"/>
<path d="M56.9246 45.6818H55.7688V42.3631L53.3498 45.6818H52.2412V40.5742H53.4075V43.9035L55.8265 40.5742H56.9246V45.6818Z" fill="#000072"/>
<path d="M55.1708 39.1292H55.9834C55.9918 39.2856 55.964 39.4418 55.902 39.5857C55.84 39.7297 55.7456 39.8573 55.6261 39.9588C55.3407 40.1583 54.9975 40.2586 54.6494 40.2442V39.6603C54.7861 39.6578 54.9182 39.6104 55.0253 39.5255C55.0788 39.4748 55.1208 39.4131 55.1482 39.3447C55.1756 39.2763 55.1878 39.2027 55.1841 39.1292" fill="#000072"/>
<path d="M54.6491 39.6607V40.2446H54.5678C53.6401 40.2446 53.1709 39.8694 53.1631 39.127H53.965C53.965 39.481 54.1747 39.6554 54.5678 39.6554H54.636" fill="#000072"/>
<path d="M53.1144 50.8552V51.7747H50.761V52.9558H53.5207V53.9043H49.5947V48.7969H53.4263V49.7454H50.761V50.8552H53.1144Z" fill="#000072"/>
<path d="M50.9792 45.6818H49.8209V42.3631L47.4045 45.6818H46.2959V40.5742H47.4595V43.9035L49.8785 40.5742H50.9792V45.6818Z" fill="#000072"/>
<path d="M46.4628 49.7587L46.468 53.9043H45.3018V48.7969H48.8791L48.8713 49.7587H46.4628Z" fill="#000072"/>
<path d="M42.2837 45.6818H41.1201V40.5742H42.2837V42.6379H43.125L44.4564 40.5742H45.696L44.0371 43.0421L45.7484 45.6818H44.4144L43.0962 43.6261H42.2837V45.6818Z" fill="#000072"/>
<path d="M40.3688 41.3904L39.6141 42.0906C39.4596 41.9013 39.265 41.7494 39.0445 41.6461C38.8241 41.5427 38.5834 41.4905 38.3403 41.4934C38.0475 41.4877 37.7583 41.5597 37.5017 41.7022C37.258 41.8347 37.0577 42.0358 36.9251 42.2808C36.7913 42.5427 36.7215 42.8331 36.7215 43.1277C36.7215 43.4223 36.7913 43.7126 36.9251 43.9745C37.0577 44.2196 37.258 44.4206 37.5017 44.5532C37.7581 44.6964 38.0473 44.7693 38.3403 44.7646C38.5844 44.7671 38.8259 44.7138 39.0466 44.6085C39.2672 44.5032 39.4613 44.3488 39.6141 44.1569L40.3688 44.8571C40.1278 45.1531 39.8194 45.3861 39.4699 45.5361C39.092 45.6971 38.685 45.7771 38.2748 45.7713C37.7865 45.7781 37.3043 45.6609 36.8727 45.4304C36.4651 45.2134 36.125 44.8869 35.8899 44.4871C35.6543 44.073 35.5303 43.6038 35.5303 43.1264C35.5303 42.6489 35.6543 42.1797 35.8899 41.7656C36.1258 41.3671 36.4658 41.0417 36.8727 40.8249C37.3073 40.5951 37.792 40.4788 38.2827 40.4867C38.6917 40.4815 39.0975 40.5606 39.4752 40.7192C39.8209 40.8695 40.127 41.0994 40.3688 41.3904Z" fill="#000072"/>
<path d="M34.9649 44.2471C34.973 44.4521 34.9305 44.656 34.8413 44.8404C34.7522 45.0249 34.6191 45.1841 34.4539 45.304C34.0198 45.5838 33.5082 45.7163 32.9941 45.6819H30.4834V40.5743H32.8421C33.3246 40.5463 33.8043 40.666 34.218 40.9178C34.3766 41.0244 34.5052 41.1703 34.5915 41.3415C34.6778 41.5128 34.7189 41.7036 34.7107 41.8955C34.7159 42.1315 34.6501 42.3637 34.522 42.5613C34.392 42.7591 34.2107 42.9172 33.9979 43.0185C34.2759 43.0899 34.5244 43.2481 34.7081 43.4703C34.8758 43.6933 34.9627 43.9674 34.9545 44.2471M33.7672 44.1494C33.7672 43.7266 33.5052 43.5152 32.9391 43.5152H31.6549V44.8073H32.9391C33.4921 44.8073 33.7672 44.588 33.7672 44.1494ZM33.327 42.5349C33.3926 42.4777 33.4443 42.4059 33.4779 42.3253C33.5116 42.2446 33.5263 42.1572 33.5209 42.0699C33.5265 41.9828 33.5113 41.8956 33.4767 41.8156C33.442 41.7356 33.3889 41.6652 33.3217 41.6101C33.1533 41.4918 32.9499 41.4349 32.7451 41.4489H31.6549V42.6908H32.7451C32.9508 42.7047 33.1553 42.6499 33.327 42.5349Z" fill="#000072"/>
<path d="M7.69785 6.12671L16.3124 20.3344L24.6989 6.12671H32.0293L32.1026 32.7875H23.9808L23.9048 20.6382L18.1627 30.3883H14.2341L8.49195 21.0557V32.7875H0.370117V6.12671H7.69785Z" fill="#000072"/>
<path d="M29.217 41.7732C29.4538 42.1846 29.5785 42.6517 29.5785 43.1274C29.5785 43.603 29.4538 44.0702 29.217 44.4816C28.9769 44.8807 28.6347 45.2075 28.2263 45.4275C27.7857 45.6527 27.2986 45.77 26.8046 45.77C26.3105 45.77 25.8234 45.6527 25.3828 45.4275C24.9728 45.2098 24.63 44.8825 24.3921 44.4816C24.1564 44.0698 24.0322 43.6028 24.0322 43.1274C24.0322 42.652 24.1564 42.1849 24.3921 41.7732C24.6293 41.3716 24.9722 41.0442 25.3828 40.8273C25.8237 40.6031 26.3107 40.4863 26.8046 40.4863C27.2984 40.4863 27.7854 40.6031 28.2263 40.8273C28.6353 41.0465 28.9776 41.3734 29.217 41.7732ZM28.3914 43.1181C28.3971 42.8229 28.3257 42.5313 28.1844 42.2726C28.0512 42.03 27.8545 41.8289 27.6157 41.6913C27.3669 41.556 27.0886 41.4852 26.8059 41.4852C26.5232 41.4852 26.2449 41.556 25.996 41.6913C25.756 41.8281 25.5582 42.0293 25.4247 42.2726C25.2909 42.5345 25.2211 42.8248 25.2211 43.1194C25.2211 43.4141 25.2909 43.7044 25.4247 43.9663C25.5576 44.2094 25.7555 44.4099 25.996 44.545C26.2437 44.684 26.5224 44.757 26.8059 44.757C27.0893 44.757 27.3681 44.684 27.6157 44.545C27.8555 44.4099 28.0526 44.2093 28.1844 43.9663C28.3257 43.7067 28.3971 43.4142 28.3914 43.1181Z" fill="#000072"/>
<path d="M20.3977 45.6818H19.2314V40.5742H20.3977V42.6379H21.239L22.5703 40.5742H23.81L22.151 43.0421L23.8598 45.6818H22.5258L21.2075 43.6261H20.3977V45.6818Z" fill="#000072"/>
<path d="M18.4789 41.391L17.7267 42.0912C17.5722 41.902 17.3776 41.7501 17.1572 41.6467C16.9367 41.5434 16.6961 41.4912 16.453 41.4941C16.1593 41.4884 15.8693 41.5604 15.6117 41.7028C15.3697 41.8377 15.17 42.0381 15.0352 42.2815C14.9014 42.5434 14.8316 42.8337 14.8316 43.1284C14.8316 43.423 14.9014 43.7133 15.0352 43.9752C15.17 44.2186 15.3697 44.419 15.6117 44.5539C15.8691 44.6971 16.1591 44.77 16.453 44.7653C16.6971 44.7678 16.9386 44.7144 17.1592 44.6092C17.3799 44.5039 17.5739 44.3495 17.7267 44.1575L18.4789 44.8577C18.2397 45.1546 17.9319 45.3878 17.5826 45.5368C17.2046 45.6975 16.7977 45.7776 16.3875 45.772C15.8999 45.7795 15.4184 45.6622 14.988 45.4311C14.577 45.2159 14.2339 44.8892 13.9973 44.4878C13.7617 44.0736 13.6377 43.6045 13.6377 43.127C13.6377 42.6496 13.7617 42.1804 13.9973 41.7662C14.2328 41.3665 14.574 41.0408 14.9827 40.8256C15.4169 40.591 15.9028 40.4711 16.3954 40.4768C16.8036 40.4716 17.2085 40.5507 17.5852 40.7093C17.932 40.8579 18.2384 41.088 18.4789 41.3805" fill="#000072"/>
<path d="M12.7248 41.7732C13.081 42.3643 13.1898 43.0739 13.0271 43.7458C12.8644 44.4177 12.4436 44.997 11.8573 45.3562L11.7341 45.4275C11.2935 45.6527 10.8064 45.77 10.3124 45.77C9.81834 45.77 9.33126 45.6527 8.89059 45.4275C8.48057 45.2098 8.13785 44.8825 7.89994 44.4816C7.66416 44.0698 7.54004 43.6028 7.54004 43.1274C7.54004 42.652 7.66416 42.1849 7.89994 41.7732C8.13711 41.3716 8.48002 41.0442 8.89059 40.8273C9.33156 40.6031 9.81852 40.4863 10.3124 40.4863C10.8062 40.4863 11.2932 40.6031 11.7341 40.8273C12.1431 41.0465 12.4854 41.3734 12.7248 41.7732ZM11.9019 43.1181C11.9075 42.8229 11.8361 42.5313 11.6948 42.2726C11.5603 42.0274 11.3594 41.8259 11.1156 41.6913C10.8668 41.556 10.5885 41.4852 10.3058 41.4852C10.0231 41.4852 9.74483 41.556 9.496 41.6913C9.2572 41.8289 9.06048 42.03 8.92728 42.2726C8.7935 42.5345 8.7237 42.8248 8.7237 43.1194C8.7237 43.4141 8.7935 43.7044 8.92728 43.9663C9.05987 44.2087 9.2568 44.4091 9.496 44.545C9.74362 44.684 10.0224 44.757 10.3058 44.757C10.5893 44.757 10.868 44.684 11.1156 44.545C11.356 44.4106 11.5533 44.2098 11.6844 43.9663C11.8293 43.7077 11.9043 43.4152 11.9019 43.1181Z" fill="#000072"/>
<path d="M3.51481 45.1428L2.02358 42.6828V45.6818H0.922852V40.5742H1.89254L3.79 43.7503L5.65862 40.5742H6.62831L6.63617 45.6818H5.53282L5.52758 42.6246L4.03635 45.1428H3.51481Z" fill="#000072"/>
<path d="M0.370766 35.9023H67.7041V37.4597H0.370766V35.9023Z" fill="#000072"/>
<path d="M202.369 35.9023H135.036V37.4597H202.369V35.9023Z" fill="#000072"/>
<path d="M135.135 35.9023H67.5811V37.4599H135.135V35.9023Z" fill="#000072"/>
</g>
<defs>
<clipPath id="clip0_17_1339">
<rect width="202" height="60" fill="white" transform="translate(0.370117)"/>
</clipPath>
</defs>
</svg>
