<svg width="132" height="40" viewBox="0 0 132 40" fill="none" xmlns="http://www.w3.org/2000/svg">
<path d="M120.471 10.7114H122.248L125.925 4.08447H132L126.864 12.7177L131.974 21.8583H125.408L122.099 15.4358H120.471V21.8583H114.645V4.08447H120.471V10.7114Z" fill="white"/>
<path d="M128.765 27.0493H131.637V27.6923H130.577V30.4544H129.82V27.6923H128.765V27.0493Z" fill="white"/>
<path d="M126.684 28.4216H128.222V29.0346H126.684V29.822H128.486V30.4561H125.922V27.0493H128.426V27.6799H126.684V28.4216Z" fill="white"/>
<path d="M122.566 27.0493H125.438V27.6923H124.378V30.4544H123.621V27.6923H122.566V27.0493Z" fill="white"/>
<path d="M122.084 30.4544H121.329V28.2419L119.748 30.4544H119.023V27.0493H119.786V29.2688L121.365 27.0493H122.084V30.4544Z" fill="white"/>
<path d="M118.524 27.594L118.031 28.0608C117.93 27.9347 117.803 27.8334 117.659 27.7645C117.515 27.6956 117.357 27.6608 117.199 27.6627C117.007 27.659 116.817 27.7069 116.649 27.8019C116.491 27.8918 116.361 28.0255 116.274 28.1877C116.185 28.3619 116.139 28.5556 116.139 28.7522C116.139 28.9489 116.185 29.1426 116.274 29.3168C116.361 29.479 116.491 29.6127 116.649 29.7026C116.817 29.7981 117.007 29.8467 117.199 29.8435C117.358 29.8452 117.516 29.8096 117.66 29.7394C117.804 29.6693 117.931 29.5663 118.031 29.4384L118.524 29.9052C118.366 30.1023 118.165 30.2575 117.937 30.3579C117.69 30.4652 117.424 30.5185 117.156 30.5147C116.837 30.5192 116.522 30.4411 116.24 30.2874C115.973 30.1427 115.751 29.9251 115.597 29.6585C115.443 29.3824 115.362 29.0697 115.362 28.7514C115.362 28.433 115.443 28.1203 115.597 27.8442C115.751 27.5785 115.974 27.3616 116.24 27.2171C116.522 27.0616 116.839 26.9816 117.159 26.9845C117.427 26.981 117.693 27.0338 117.94 27.1396C118.166 27.2397 118.366 27.393 118.524 27.587" fill="white"/>
<path d="M114.859 27.6277C114.974 27.8264 115.034 28.053 115.034 28.2839C115.034 28.5148 114.974 28.7414 114.859 28.9401C114.738 29.1309 114.564 29.28 114.359 29.3681C114.118 29.4716 113.859 29.522 113.597 29.5161H112.929V30.455H112.162V27.0499H113.597C113.859 27.043 114.119 27.094 114.359 27.1997C114.563 27.2899 114.736 27.4385 114.859 27.6277ZM114.258 28.2865C114.264 28.2043 114.252 28.1218 114.222 28.0452C114.192 27.9686 114.146 27.8999 114.087 27.8444C113.935 27.732 113.748 27.6784 113.561 27.6929H112.938V28.8749H113.561C113.748 28.887 113.934 28.8329 114.087 28.7216C114.146 28.6676 114.193 28.6002 114.222 28.5247C114.252 28.4493 114.264 28.3677 114.258 28.2865Z" fill="white"/>
<path d="M96.5996 7.96875H102.154V14.2416L106.82 7.96875H111.955V21.8584H106.399V15.5627L101.758 21.8584H96.5996V7.96875Z" fill="white"/>
<path d="M109.742 28.422H111.28V29.0351H109.742V29.8225H111.543V30.4566H108.979V27.0498H111.483V27.6804H109.742V28.422Z" fill="white"/>
<path d="M108.374 29.4983C108.379 29.635 108.352 29.7709 108.293 29.8939C108.235 30.0168 108.148 30.123 108.04 30.2029C107.756 30.3895 107.422 30.4777 107.086 30.4548H105.454V27.0498H106.995C107.311 27.0302 107.626 27.11 107.896 27.2788C108 27.3497 108.084 27.447 108.14 27.5612C108.196 27.6754 108.223 27.8027 108.217 27.9306C108.22 28.0879 108.177 28.2427 108.093 28.3745C108.009 28.5067 107.89 28.6121 107.751 28.6792C107.932 28.7287 108.094 28.8338 108.215 28.9804C108.324 29.1291 108.381 29.3119 108.376 29.4983M107.598 29.4331C107.598 29.1513 107.427 29.0104 107.059 29.0104H106.218V29.8718H107.059C107.42 29.8718 107.598 29.7256 107.598 29.4331ZM107.311 28.3568C107.35 28.3179 107.382 28.2713 107.404 28.2197C107.426 28.168 107.438 28.1124 107.439 28.0561C107.44 27.9997 107.43 27.9437 107.409 27.8913C107.389 27.839 107.359 27.7912 107.321 27.7509L107.311 27.7403C107.201 27.6614 107.068 27.6235 106.934 27.6328H106.22V28.4608H106.934C107.068 28.4702 107.201 28.4336 107.312 28.3568" fill="white"/>
<path d="M104.631 30.4548H103.875V28.2424L102.295 30.4548H101.57V27.0498H102.332V29.2693L103.913 27.0498H104.631V30.4548Z" fill="white"/>
<path d="M101.54 35.9362V33.722L99.9588 35.9362H99.2344V32.5312H99.9965V34.7507L101.577 32.5312H102.298V35.9362H101.54Z" fill="white"/>
<path d="M97.7031 27.0493H98.4704V28.3916H99.9757V27.0493H100.743V30.4544H99.9757V29.0575H98.4704V30.4544H97.7031V27.0493Z" fill="white"/>
<path d="M97.656 35.9362V33.722L96.077 35.9362H95.3525V32.5312H96.1146V34.7507L97.6954 32.5312H98.4129V35.9362H97.656Z" fill="white"/>
<path d="M97.3398 27.0493L95.9304 29.7445C95.8157 29.9789 95.6477 30.1813 95.4406 30.3346C95.2579 30.4646 95.041 30.534 94.8189 30.5336C94.6335 30.5313 94.4502 30.4918 94.2794 30.4174L94.4644 29.8184C94.5711 29.8555 94.6824 29.8768 94.7949 29.8819C94.8846 29.8825 94.9728 29.8582 95.0501 29.8114C95.1342 29.7534 95.2054 29.6778 95.259 29.5894L95.2864 29.5507L93.9814 27.0493H94.8001L95.6803 28.8796L96.588 27.0493H97.3398Z" fill="white"/>
<path d="M87.6611 4.08447L95.2205 21.8583H89.1921L88.0276 18.7616H81.4649L80.3055 21.8583H74.3799L81.9341 4.08447H87.6611ZM86.428 14.444L84.7496 9.97504L83.0696 14.444H86.428Z" fill="white"/>
<path d="M94.332 33.1691C94.6045 33.4307 94.7647 33.793 94.7775 34.1761C94.7904 34.5593 94.6548 34.932 94.4005 35.2124C94.3783 35.2371 94.356 35.26 94.332 35.2829C94.034 35.54 93.6076 35.6845 93.0493 35.7144V36.0826H92.3437V35.7091C91.782 35.6757 91.3521 35.533 91.0541 35.2723C90.782 35.0137 90.6207 34.6546 90.6057 34.2739C90.5906 33.8932 90.7229 33.5218 90.9736 33.2413C90.9993 33.2131 91.0267 33.1849 91.0541 33.1585C91.3521 32.9048 91.782 32.7586 92.3437 32.7234V32.3711H93.0493V32.7234C93.6076 32.7551 94.034 32.8995 94.332 33.162M93.796 34.8284C93.8798 34.7515 93.9455 34.6561 93.9883 34.5493C94.031 34.4425 94.0496 34.3271 94.0426 34.2119C94.0426 33.6922 93.7104 33.4051 93.0493 33.347V35.0926C93.3186 35.0848 93.5791 34.9926 93.796 34.8284ZM92.3437 35.0926V33.347C92.0739 33.3543 91.8125 33.4452 91.5936 33.6077C91.5106 33.6835 91.4455 33.7778 91.4033 33.8834C91.3612 33.9891 91.3431 34.1032 91.3504 34.2171C91.3504 34.7297 91.6827 35.0222 92.3437 35.0979" fill="white"/>
<path d="M92.1891 30.4544H91.4321V28.2419L89.8514 30.4544H89.127V27.0493H89.8891V29.2688L91.4698 27.0493H92.1891V30.4544Z" fill="white"/>
<path d="M91.0438 26.0859H91.5748C91.58 26.1903 91.5615 26.2946 91.5207 26.3905C91.4799 26.4864 91.4179 26.5715 91.3396 26.6391C91.1536 26.7717 90.93 26.8385 90.7031 26.8293V26.44C90.7919 26.4381 90.8776 26.4065 90.947 26.3502C90.9817 26.3161 91.009 26.2749 91.0272 26.2294C91.0454 26.1839 91.054 26.135 91.0525 26.0859" fill="white"/>
<path d="M90.7032 26.4403V26.8296H90.6484C90.0422 26.8296 89.7373 26.5795 89.7305 26.0845H90.2545C90.2545 26.3205 90.3933 26.4368 90.6484 26.4368H90.6947" fill="white"/>
<path d="M88.982 32.5312L90.4634 35.9362H89.6602L89.3656 35.207H87.8243L87.5314 35.9362H86.7471L88.2216 32.5312H88.982ZM89.1259 34.6081L88.5984 33.3045L88.0743 34.6081H89.1259Z" fill="white"/>
<path d="M88.3051 27.0498H87.543V30.4548H88.3051V27.0498Z" fill="white"/>
<path d="M87.1215 29.2741C87.1317 29.4392 87.1048 29.6045 87.0431 29.7572C86.9813 29.9099 86.8863 30.046 86.7653 30.1549C86.4749 30.3735 86.1192 30.4807 85.76 30.4579H84.2598V27.0493H85.0219V28.1679H85.8645C86.1963 28.1462 86.525 28.244 86.7944 28.4445C86.9061 28.5472 86.9933 28.675 87.0494 28.8179C87.1055 28.9609 87.129 29.1151 87.1181 29.2688M86.3457 29.2829C86.3457 28.9306 86.1368 28.7545 85.7138 28.7545H85.0287V29.8748H85.7138C85.8816 29.8854 86.0474 29.8321 86.1796 29.7251C86.2377 29.6694 86.2831 29.6012 86.3127 29.5254C86.3423 29.4496 86.3553 29.368 86.3508 29.2865" fill="white"/>
<path d="M86.6075 33.1114C86.7196 33.3105 86.7787 33.5366 86.7787 33.7667C86.7787 33.9968 86.7196 34.2229 86.6075 34.422C86.4857 34.6125 86.3117 34.7615 86.1074 34.85C85.8664 34.9543 85.6067 35.0047 85.3453 34.998H84.6774V35.9369H83.917V32.5319H85.3504C85.612 32.5249 85.8719 32.576 86.1125 32.6816C86.3165 32.7715 86.4904 32.9209 86.6126 33.1114M86.0132 33.7667C86.0174 33.6839 86.0033 33.6013 85.9718 33.525C85.9404 33.4487 85.8924 33.3807 85.8317 33.3263C85.6792 33.2151 85.4942 33.161 85.3076 33.1731H84.6825V34.3568H85.3076C85.4945 34.3691 85.6797 34.3143 85.8317 34.2018C85.8927 34.1488 85.941 34.0819 85.9725 34.0063C86.004 33.9308 86.0179 33.8487 86.0132 33.7667Z" fill="white"/>
<path d="M81.8642 33.1724L81.8676 35.9362H81.1055V32.5312H83.4432L83.438 33.1724H81.8642Z" fill="white"/>
<path d="M80.3975 27.0498H81.1647V28.3921H82.6684V27.0498H83.4356V30.4548H82.6684V29.058H81.1647V30.4548H80.3975V27.0498Z" fill="white"/>
<path d="M80.2775 33.3312C80.3931 33.5262 80.4703 33.7427 80.5046 33.9684C80.5389 34.1941 80.5296 34.4245 80.4773 34.6465C80.425 34.8685 80.3306 35.0777 80.1997 35.2621C80.0687 35.4466 79.9037 35.6027 79.714 35.7216C79.6883 35.7374 79.6626 35.7533 79.6352 35.7674C79.3471 35.9168 79.0289 35.9946 78.7062 35.9946C78.3834 35.9946 78.0652 35.9168 77.7771 35.7674C77.5091 35.6222 77.2852 35.404 77.1297 35.1367C76.9756 34.8623 76.8945 34.5509 76.8945 34.234C76.8945 33.917 76.9756 33.6057 77.1297 33.3312C77.2848 33.064 77.5089 32.8463 77.7771 32.7023C78.0645 32.5504 78.383 32.4712 78.7062 32.4712C79.0293 32.4712 79.3478 32.5504 79.6352 32.7023C79.9027 32.8473 80.1266 33.0648 80.2826 33.3312M79.7431 34.2331C79.7468 34.0363 79.7002 33.8419 79.6078 33.6694C79.5222 33.5071 79.3932 33.3732 79.2362 33.2836C79.0744 33.1909 78.8922 33.1423 78.707 33.1423C78.5218 33.1423 78.3396 33.1909 78.1778 33.2836C78.0215 33.3742 77.8928 33.5078 77.8062 33.6694C77.7177 33.8437 77.6714 34.0374 77.6714 34.234C77.6714 34.4306 77.7177 34.6243 77.8062 34.7985C77.8932 34.9603 78.0218 35.0943 78.1778 35.1861C78.3404 35.2763 78.5223 35.3235 78.707 35.3235C78.8918 35.3235 79.0736 35.2763 79.2362 35.1861C79.393 35.0953 79.5217 34.961 79.6078 34.7985C79.7002 34.6254 79.7468 34.4305 79.7431 34.2331Z" fill="white"/>
<path d="M76.5322 27.0493H77.2995V28.3916H78.8031V27.0493H79.5704V30.4544H78.8031V29.0575H77.2995V30.4544H76.5322V27.0493Z" fill="white"/>
<path d="M77.3671 4.08447V8.72964H69.9379V21.8583H64.2109V4.08447H77.3671Z" fill="white"/>
<path d="M76.6865 32.5312V33.1724H75.6281V35.9362H74.8694V33.1724H73.8145V32.5312H76.6865Z" fill="white"/>
<path d="M74.1107 28.4216H75.6486V29.0346H74.1107V29.822H75.9141V30.4561H73.3486V27.0493H75.8524V27.6799H74.1107V28.4216Z" fill="white"/>
<path d="M73.5655 33.1114C73.6777 33.3105 73.7367 33.5366 73.7367 33.7667C73.7367 33.9968 73.6777 34.2229 73.5655 34.422C73.4437 34.6125 73.2697 34.7615 73.0654 34.85C72.8244 34.9543 72.5647 35.0047 72.3033 34.998H71.6337V35.9369H70.8682V32.5319H72.3033C72.5649 32.5249 72.8248 32.576 73.0654 32.6816C73.2694 32.7715 73.4433 32.9209 73.5655 33.1114ZM72.9575 33.7667C72.9642 33.6839 72.9522 33.6006 72.9225 33.5233C72.8928 33.446 72.8462 33.3768 72.7863 33.321C72.6338 33.2098 72.4488 33.1557 72.2622 33.1678H71.6354V34.3515H72.2622C72.4485 34.3657 72.6338 34.3127 72.7863 34.2018C72.847 34.1486 72.8949 34.0816 72.9261 34.0061C72.9573 33.9306 72.971 33.8486 72.9661 33.7667" fill="white"/>
<path d="M72.7425 29.4981C72.7479 29.6346 72.7205 29.7704 72.6625 29.8934C72.6045 30.0163 72.5178 30.1226 72.4102 30.2027C72.1266 30.3892 71.7923 30.4775 71.4563 30.4546H69.8242V27.0496H71.3656C71.6814 27.0308 71.9954 27.1106 72.2664 27.2786C72.3692 27.3503 72.4525 27.4477 72.5086 27.5618C72.5646 27.6758 72.5915 27.8026 72.5866 27.9303C72.59 28.0877 72.547 28.2424 72.4633 28.3742C72.3787 28.5064 72.2602 28.6119 72.1208 28.679C72.3012 28.7285 72.4626 28.8336 72.5832 28.9802C72.6928 29.1289 72.7496 29.3116 72.7442 29.4981M71.9684 29.4329C71.9684 29.1511 71.7971 29.0101 71.4289 29.0101H70.588V29.8715H71.4289C71.7903 29.8715 71.9684 29.7253 71.9684 29.4329ZM71.6807 28.3566C71.7203 28.3177 71.752 28.271 71.774 28.2194C71.796 28.1678 71.8078 28.1122 71.8088 28.0558C71.8097 27.9995 71.7998 27.9435 71.7796 27.8911C71.7594 27.8387 71.7292 27.791 71.691 27.7506L71.6807 27.7401C71.5706 27.6612 71.4377 27.6233 71.3039 27.6326H70.5898V28.4605H71.3039C71.4378 28.4699 71.5709 28.4334 71.6824 28.3566" fill="white"/>
<path d="M68.9456 32.5312L70.427 35.9362H69.6237L69.3309 35.207H67.7896L67.495 35.9362H66.7911L66.7432 35.8605L68.1869 32.5312H68.9456ZM69.0894 34.6081L68.5637 33.3045L68.0379 34.6081H69.0894Z" fill="white"/>
<path d="M66.4707 27.0498H69.3427V27.6928H68.2826V30.4548H67.5239V27.6928H66.4707V27.0498Z" fill="white"/>
<path d="M66.7148 35.9366L66.7474 35.8608L66.7953 35.9366H66.7148Z" fill="white"/>
<path d="M65.9232 35.9362L65.0618 34.564H64.5326V35.9362H63.7705V32.5312H64.5326V33.9087H65.0824L65.9524 32.5312H66.7624L65.6783 34.1747L66.747 35.8605L66.7145 35.9362H65.9232Z" fill="white"/>
<path d="M66.3428 27.5934L65.8513 28.0602C65.7504 27.9341 65.6232 27.8328 65.4791 27.7639C65.3351 27.695 65.1779 27.6602 65.019 27.6621C64.8271 27.6584 64.6376 27.7063 64.4693 27.8013C64.3111 27.8912 64.1806 28.0248 64.0925 28.1871C64.0051 28.3617 63.9595 28.5552 63.9595 28.7516C63.9595 28.948 64.0051 29.1416 64.0925 29.3162C64.1806 29.4785 64.3111 29.6121 64.4693 29.702C64.6374 29.7975 64.8269 29.8461 65.019 29.8429C65.1785 29.8446 65.3363 29.809 65.4805 29.7388C65.6247 29.6687 65.7515 29.5657 65.8513 29.4378L66.3428 29.9046C66.1859 30.1025 65.9842 30.258 65.7554 30.3573C65.5085 30.4646 65.2425 30.5179 64.9745 30.5141C64.6559 30.5191 64.3412 30.4409 64.06 30.2868C63.7931 30.1422 63.5702 29.9246 63.416 29.6579C63.2637 29.3813 63.1836 29.0687 63.1836 28.7508C63.1836 28.4328 63.2637 28.1202 63.416 27.8436C63.5703 27.5775 63.7932 27.3604 64.06 27.2165C64.3433 27.0631 64.6595 26.9856 64.9796 26.991C65.2469 26.9875 65.5121 27.0402 65.7588 27.146C65.9852 27.2456 66.1853 27.3989 66.3428 27.5934Z" fill="white"/>
<path d="M62.6807 27.6277C62.7942 27.8267 62.8541 28.0532 62.8541 28.2839C62.8541 28.5146 62.7942 28.7411 62.6807 28.9401C62.559 29.1306 62.3849 29.2796 62.1807 29.3681C61.9391 29.4724 61.6787 29.5228 61.4168 29.5161H60.7506V30.455H59.9834V27.05H61.4168C61.6789 27.0429 61.9394 27.094 62.1807 27.1997C62.3833 27.2909 62.5567 27.4394 62.6807 27.6277ZM62.0796 28.2866C62.0846 28.2036 62.0709 28.1206 62.0397 28.0439C62.0086 27.9673 61.9607 27.899 61.8998 27.8444C61.7472 27.732 61.5611 27.6784 61.374 27.6929H60.7506V28.8749H61.374C61.5611 28.887 61.7467 28.8329 61.8998 28.7217C61.9598 28.6679 62.0072 28.6008 62.0384 28.5254C62.0695 28.45 62.0836 28.3683 62.0796 28.2866Z" fill="white"/>
<path d="M60.8601 35.9362V33.722L59.2811 35.9362H58.5566V32.5312H59.3187V34.7507L60.8995 32.5312H61.617V35.9362H60.8601Z" fill="white"/>
<path d="M49.7181 13.3272L51.2252 10.9844L55.8167 4.08447H61.148V21.8583H55.4211V12.642L49.4972 21.8583H44.0392H43.9912V4.08447H49.7181V13.2497V13.3272Z" fill="white"/>
<path d="M58.0565 27.0493L59.5361 30.4544H58.7415L58.4469 29.7251H56.9056L56.6127 30.4544H55.8301L57.3046 27.0493H58.0565ZM58.1986 29.1279L57.6711 27.8226L57.1471 29.1279H58.1986Z" fill="white"/>
<path d="M55.6391 35.9362V33.722L54.0584 35.9362H53.334V32.5312H54.0978V34.7507L55.6768 32.5312H56.3961V35.9362H55.6391Z" fill="white"/>
<path d="M55.6598 29.8136V31.1612H54.949V30.4566H52.6131V31.1612H51.9023V29.8136H52.0359C52.2346 29.8136 52.3784 29.6569 52.4555 29.3644C52.5533 28.9556 52.6044 28.5365 52.6079 28.1155L52.6456 27.0586H55.1905V29.8224L55.6598 29.8136ZM54.4387 29.8136V27.6892H53.3032L53.2895 28.1842C53.2796 28.5256 53.2464 28.8658 53.1902 29.2024C53.1617 29.4214 53.0817 29.63 52.9573 29.8101L54.4387 29.8136Z" fill="white"/>
<path d="M51.7546 35.9362V33.722L50.1739 35.9362H49.4512V32.5312H50.2116V34.7507L51.7923 32.5312H52.5116V35.9362H51.7546Z" fill="white"/>
<path d="M51.9307 27.0493L50.5212 29.7445C50.4065 29.9789 50.2385 30.1813 50.0314 30.3346C49.8488 30.4646 49.6318 30.534 49.4097 30.5336C49.2243 30.5313 49.041 30.4918 48.8703 30.4174L49.0535 29.8184C49.1609 29.8553 49.2727 29.8766 49.3858 29.8819C49.4754 29.8825 49.5636 29.8582 49.6409 29.8114C49.725 29.7534 49.7962 29.6778 49.8499 29.5894L49.8773 29.5507L48.5723 27.0493H49.3909L50.2694 28.8796L51.1788 27.0493H51.9307Z" fill="white"/>
<path d="M48.6804 34.4793C48.7926 34.6308 48.8505 34.8176 48.8443 35.0079C48.838 35.1983 48.768 35.3805 48.6461 35.5239C48.4992 35.6868 48.314 35.8081 48.1084 35.8762C47.8705 35.961 47.6202 36.0028 47.3685 35.9995C47.1375 35.9993 46.9074 35.9697 46.6835 35.9114C46.4589 35.8534 46.2433 35.7633 46.043 35.6437L46.2793 35.0783C46.4281 35.1719 46.5898 35.2419 46.7588 35.2861C46.9264 35.3323 47.0991 35.356 47.2726 35.3566C47.4689 35.3634 47.6637 35.3198 47.8395 35.2297C47.9057 35.1992 47.962 35.1497 48.0017 35.0873C48.0415 35.0249 48.063 34.9521 48.0638 34.8774C48.0653 34.82 48.0518 34.7633 48.0247 34.7131C47.9976 34.6629 47.9579 34.6211 47.9097 34.5921C47.7819 34.5203 47.6373 34.4861 47.4918 34.4934H46.6818V33.8998H47.4387C47.5666 33.9072 47.6936 33.8733 47.8018 33.8029C47.8431 33.7727 47.8764 33.7324 47.8988 33.6857C47.9212 33.639 47.932 33.5872 47.9303 33.5352C47.9299 33.4706 47.9123 33.4074 47.8794 33.3524C47.8465 33.2974 47.7995 33.2528 47.7436 33.2234C47.5964 33.1426 47.4308 33.1036 47.2641 33.1107C47.1121 33.1126 46.9608 33.1333 46.8136 33.1723C46.6602 33.2113 46.5122 33.2705 46.3735 33.3485L46.1406 32.7355C46.492 32.5489 46.8823 32.4534 47.2778 32.4571C47.5211 32.4558 47.7629 32.4956 47.9936 32.5752C48.1905 32.6409 48.3676 32.7581 48.5074 32.9151C48.6354 33.0592 48.7047 33.2484 48.7009 33.4436C48.7045 33.599 48.6595 33.7515 48.5725 33.8787C48.4873 34.0069 48.3686 34.1077 48.23 34.1693C48.4075 34.2274 48.5643 34.3383 48.6804 34.4882" fill="white"/>
<path d="M48.5062 27.5934L48.0147 28.0602C47.9137 27.9341 47.7865 27.8328 47.6425 27.7639C47.4984 27.695 47.3412 27.6602 47.1823 27.6621C46.9904 27.6584 46.8009 27.7063 46.6326 27.8013C46.4741 27.8906 46.3434 28.0244 46.2558 28.1871C46.1673 28.3613 46.121 28.555 46.121 28.7516C46.121 28.9483 46.1673 29.142 46.2558 29.3162C46.3434 29.4789 46.4741 29.6126 46.6326 29.702C46.8008 29.7975 46.9903 29.8461 47.1823 29.8429C47.3418 29.8446 47.4996 29.809 47.6438 29.7388C47.788 29.6687 47.9148 29.5657 48.0147 29.4378L48.5062 29.9046C48.3491 30.1017 48.1482 30.257 47.9205 30.3573C47.6735 30.4644 47.4076 30.5178 47.1395 30.5141C46.8204 30.5186 46.5053 30.4405 46.2233 30.2868C45.9562 30.1432 45.7337 29.9253 45.5811 29.6579C45.4262 29.3821 45.3447 29.0692 45.3447 28.7508C45.3447 28.4323 45.4262 28.1194 45.5811 27.8436C45.7338 27.5768 45.9563 27.3595 46.2233 27.2165C46.5066 27.0631 46.8229 26.9856 47.1429 26.991C47.4102 26.9875 47.6754 27.0402 47.9222 27.146C48.1481 27.2462 48.3481 27.3994 48.5062 27.5934Z" fill="white"/>
<path d="M45.4614 33.9035V34.5165H43.9252V35.3039H45.7268V35.9362H43.1631V32.5312H45.6669V33.1636H43.9252V33.9035H45.4614Z" fill="white"/>
<path d="M44.7426 27.8486C44.8973 28.1229 44.9788 28.4343 44.9788 28.7514C44.9788 29.0685 44.8973 29.38 44.7426 29.6542C44.5868 29.9207 44.3637 30.1386 44.0969 30.2848C43.809 30.435 43.4907 30.5132 43.1678 30.5132C42.845 30.5132 42.5267 30.435 42.2387 30.2848C41.97 30.1402 41.7453 29.922 41.5897 29.6542C41.4356 29.3797 41.3545 29.0684 41.3545 28.7514C41.3545 28.4345 41.4356 28.1231 41.5897 27.8486C41.7453 27.5809 41.97 27.3626 42.2387 27.218C42.5269 27.0686 42.8451 26.9907 43.1678 26.9907C43.4905 26.9907 43.8088 27.0686 44.0969 27.218C44.3637 27.3642 44.5868 27.5822 44.7426 27.8486ZM44.2031 28.7453C44.2065 28.5487 44.1605 28.3545 44.0695 28.1816C43.9825 28.0198 43.8539 27.8858 43.6979 27.794C43.535 27.7038 43.3528 27.6566 43.1678 27.6566C42.9828 27.6566 42.8007 27.7038 42.6378 27.794C42.4817 27.8858 42.3532 28.0198 42.2661 28.1816C42.1776 28.3558 42.1314 28.5495 42.1314 28.7461C42.1314 28.9428 42.1776 29.1365 42.2661 29.3107C42.3542 29.473 42.4847 29.6067 42.6429 29.6965C42.805 29.7892 42.9875 29.8378 43.173 29.8378C43.3585 29.8378 43.5409 29.7892 43.703 29.6965C43.8593 29.6059 43.988 29.4723 44.0746 29.3107C44.1664 29.1375 44.2125 28.9425 44.2082 28.7453" fill="white"/>
<path d="M42.6437 35.2955V36.6431H41.9346V35.9385H39.5987V36.6431H38.8896V35.2955H39.0215C39.2202 35.2955 39.364 35.1405 39.4428 34.8481C39.54 34.4386 39.5906 34.0189 39.5935 33.5974L39.6329 32.5405H42.1778V35.3043L42.6437 35.2955ZM41.4243 35.2955V33.1729H40.2888L40.2734 33.6697C40.2644 34.0116 40.2312 34.3525 40.1741 34.6896C40.1469 34.9081 40.0675 35.1163 39.9429 35.2955H41.4243Z" fill="white"/>
<path d="M41.4507 27.6923H39.8751L39.8803 30.4544H39.1182V27.0493H41.4559L41.4507 27.6923Z" fill="white"/>
<path d="M23.7725 4.08447H29.4994V13.3272L35.4506 4.08447H40.9292V21.8583H35.2023V12.642L29.2785 21.8583H23.7725V4.08447Z" fill="white"/>
<path d="M38.4972 33.3312C38.73 33.7253 38.801 34.1983 38.6947 34.6462C38.5884 35.0942 38.3135 35.4804 37.9303 35.7198L37.8481 35.7674C37.56 35.9168 37.2418 35.9946 36.919 35.9946C36.5963 35.9946 36.2781 35.9168 35.99 35.7674C35.722 35.6222 35.4981 35.404 35.3426 35.1367C35.1885 34.8623 35.1074 34.5509 35.1074 34.234C35.1074 33.917 35.1885 33.6057 35.3426 33.3312C35.4977 33.064 35.7218 32.8463 35.99 32.7023C36.2774 32.5504 36.5959 32.4712 36.919 32.4712C37.2422 32.4712 37.5607 32.5504 37.8481 32.7023C38.1156 32.8473 38.3395 33.0648 38.4955 33.3312M37.956 34.2331C37.9594 34.0365 37.9134 33.8423 37.8224 33.6694C37.7348 33.5086 37.6064 33.3752 37.4508 33.2836C37.2886 33.1913 37.1062 33.1428 36.9208 33.1428C36.7353 33.1428 36.5529 33.1913 36.3907 33.2836C36.2336 33.3737 36.1042 33.5073 36.0174 33.6694C35.9299 33.844 35.8843 34.0376 35.8843 34.234C35.8843 34.4304 35.9299 34.6239 36.0174 34.7985C36.1051 34.9603 36.2342 35.0944 36.3907 35.1861C36.5521 35.2795 36.7348 35.327 36.9199 35.3235C37.1055 35.3258 37.2884 35.2785 37.4508 35.1861C37.6061 35.0933 37.7344 34.9595 37.8224 34.7985C37.9133 34.6249 37.9593 34.4302 37.956 34.2331Z" fill="white"/>
<path d="M36.9559 30.4544H36.2007V28.2419L34.6199 30.4544H33.8955V27.0493H34.6576V29.2688L36.2383 27.0493H36.9559V30.4544Z" fill="white"/>
<path d="M35.8105 26.0859H36.3414C36.347 26.1902 36.3288 26.2944 36.2883 26.3903C36.2478 26.4863 36.186 26.5714 36.1079 26.6391C35.9214 26.7721 35.6972 26.8389 35.4697 26.8293V26.44C35.5591 26.4384 35.6454 26.4068 35.7153 26.3502C35.7503 26.3164 35.7778 26.2753 35.7957 26.2296C35.8136 26.184 35.8216 26.135 35.8191 26.0859" fill="white"/>
<path d="M35.4691 26.4403V26.8296H35.416C34.8097 26.8296 34.5032 26.5795 34.498 26.0845H35.0221C35.0221 26.3205 35.1591 26.4368 35.416 26.4368H35.4605" fill="white"/>
<path d="M34.467 33.9035V34.5165H32.9291V35.3039H34.7325V35.9362H32.167V32.5312H34.6708V33.1636H32.9291V33.9035H34.467Z" fill="white"/>
<path d="M33.0711 30.4544H32.3142V28.2419L30.7352 30.4544H30.0107V27.0493H30.7711V29.2688L32.3519 27.0493H33.0711V30.4544Z" fill="white"/>
<path d="M30.12 33.1724L30.1234 35.9362H29.3613V32.5312H31.699L31.6939 33.1724H30.12Z" fill="white"/>
<path d="M27.3893 30.4544H26.6289V27.0493H27.3893V28.4251H27.939L28.809 27.0493H29.6191L28.535 28.6946L29.6533 30.4544H28.7816L27.9202 29.0839H27.3893V30.4544Z" fill="white"/>
<path d="M26.1374 27.5934L25.6442 28.0602C25.5433 27.934 25.4161 27.8328 25.272 27.7639C25.128 27.695 24.9707 27.6602 24.8119 27.6621C24.6205 27.6583 24.4315 27.7063 24.2638 27.8013C24.1046 27.8897 23.9737 28.0237 23.8871 28.1871C23.7996 28.3617 23.754 28.5552 23.754 28.7516C23.754 28.948 23.7996 29.1416 23.8871 29.3162C23.9737 29.4796 24.1046 29.6136 24.2638 29.702C24.4314 29.7975 24.6204 29.8461 24.8119 29.8429C24.9714 29.8446 25.1292 29.809 25.2734 29.7388C25.4175 29.6686 25.5443 29.5657 25.6442 29.4377L26.1374 29.9045C25.9799 30.1019 25.7784 30.2572 25.55 30.3573C25.303 30.4645 25.0371 30.5179 24.7691 30.514C24.4499 30.5186 24.1348 30.4405 23.8528 30.2868C23.5865 30.1421 23.3642 29.9244 23.2106 29.6579C23.0566 29.3818 22.9756 29.0691 22.9756 28.7507C22.9756 28.4324 23.0566 28.1197 23.2106 27.8436C23.3647 27.5779 23.5869 27.361 23.8528 27.2164C24.1368 27.0633 24.4536 26.9857 24.7742 26.991C25.0415 26.9875 25.3067 27.0402 25.5534 27.146C25.7794 27.2462 25.9794 27.3994 26.1374 27.5934Z" fill="white"/>
<path d="M22.6063 29.4981C22.6115 29.6348 22.5838 29.7707 22.5255 29.8936C22.4672 30.0166 22.3802 30.1228 22.2723 30.2027C21.9886 30.3892 21.6544 30.4775 21.3184 30.4546H19.6777V27.0495H21.2191C21.5344 27.0308 21.8478 27.1107 22.1182 27.2785C22.2218 27.3496 22.3058 27.4469 22.3622 27.561C22.4186 27.6752 22.4455 27.8024 22.4402 27.9303C22.4435 28.0877 22.4005 28.2424 22.3168 28.3742C22.2318 28.5061 22.1134 28.6114 21.9743 28.679C22.156 28.7266 22.3184 28.832 22.4384 28.9802C22.548 29.1289 22.6048 29.3116 22.5994 29.4981M21.8236 29.4329C21.8236 29.1511 21.6524 29.0101 21.2824 29.0101H20.4433V29.8715H21.2824C21.6438 29.8715 21.8236 29.7253 21.8236 29.4329ZM21.5359 28.3566C21.5788 28.3185 21.6126 28.2706 21.6346 28.2169C21.6565 28.1631 21.6661 28.1048 21.6626 28.0466C21.6663 27.9885 21.6564 27.9304 21.6337 27.8771C21.6111 27.8237 21.5764 27.7768 21.5325 27.7401C21.4224 27.6612 21.2895 27.6233 21.1557 27.6326H20.4433V28.4605H21.1557C21.2901 28.4698 21.4237 28.4333 21.5359 28.3566Z" fill="white"/>
<path d="M4.78842 4.08447L10.4177 13.5562L15.898 4.08447H20.6882L20.7361 21.8583H15.4288L15.3791 13.7588L11.6268 20.2589H9.05963L5.30733 14.0371V21.8583H0V4.08447H4.78842Z" fill="white"/>
<path d="M18.85 27.8486C19.0047 28.1229 19.0862 28.4343 19.0862 28.7514C19.0862 29.0685 19.0047 29.38 18.85 29.6542C18.6931 29.9203 18.4695 30.1382 18.2026 30.2848C17.9147 30.435 17.5964 30.5132 17.2735 30.5132C16.9507 30.5132 16.6324 30.435 16.3445 30.2848C16.0765 30.1397 15.8526 29.9215 15.6971 29.6542C15.543 29.3797 15.4619 29.0684 15.4619 28.7514C15.4619 28.4345 15.543 28.1231 15.6971 27.8486C15.8521 27.5809 16.0762 27.3626 16.3445 27.218C16.6326 27.0686 16.9508 26.9907 17.2735 26.9907C17.5963 26.9907 17.9145 27.0686 18.2026 27.218C18.4698 27.3642 18.6936 27.5821 18.85 27.8486ZM18.3105 28.7453C18.3142 28.5484 18.2675 28.354 18.1752 28.1816C18.0882 28.0198 17.9596 27.8858 17.8036 27.794C17.641 27.7038 17.4591 27.6566 17.2744 27.6566C17.0897 27.6566 16.9078 27.7038 16.7452 27.794C16.5883 27.8852 16.4591 28.0194 16.3719 28.1816C16.2844 28.3562 16.2388 28.5497 16.2388 28.7461C16.2388 28.9425 16.2844 29.1361 16.3719 29.3107C16.4587 29.4728 16.588 29.6065 16.7452 29.6965C16.907 29.7892 17.0892 29.8379 17.2744 29.8379C17.4596 29.8379 17.6418 29.7892 17.8036 29.6965C17.9603 29.6064 18.0891 29.4727 18.1752 29.3107C18.2675 29.1376 18.3142 28.9427 18.3105 28.7453Z" fill="white"/>
<path d="M13.0873 30.4544H12.3252V27.0493H13.0873V28.4251H13.637L14.507 27.0493H15.3171L14.233 28.6946L15.3496 30.4544H14.4779L13.6165 29.0839H13.0873V30.4544Z" fill="white"/>
<path d="M11.8335 27.594L11.342 28.0608C11.241 27.9347 11.1138 27.8334 10.9698 27.7645C10.8257 27.6956 10.6685 27.6608 10.5096 27.6627C10.3177 27.659 10.1282 27.7069 9.95989 27.8019C9.80175 27.8918 9.67123 28.0254 9.58312 28.1877C9.4957 28.3623 9.45008 28.5558 9.45008 28.7522C9.45008 28.9486 9.4957 29.1422 9.58312 29.3168C9.67123 29.4791 9.80175 29.6127 9.95989 29.7026C10.1281 29.7981 10.3176 29.8466 10.5096 29.8435C10.6691 29.8452 10.8269 29.8096 10.9711 29.7394C11.1153 29.6693 11.2421 29.5663 11.342 29.4384L11.8335 29.9052C11.6772 30.1031 11.4761 30.2585 11.2478 30.3579C11.0008 30.465 10.7349 30.5184 10.4668 30.5146C10.1482 30.5197 9.83354 30.4415 9.55229 30.2874C9.28374 30.1439 9.05952 29.9261 8.90493 29.6585C8.75095 29.3824 8.66992 29.0697 8.66992 28.7514C8.66992 28.433 8.75095 28.1203 8.90493 27.8442C9.05877 27.5777 9.28175 27.3605 9.54887 27.2171C9.83257 27.0607 10.1501 26.9807 10.472 26.9845C10.7387 26.9811 11.0033 27.0338 11.2495 27.1395C11.4761 27.2386 11.6763 27.392 11.8335 27.587" fill="white"/>
<path d="M8.07361 27.8486C8.30639 28.2427 8.37744 28.7158 8.27113 29.1637C8.16482 29.6117 7.88987 29.9978 7.50675 30.2373L7.42625 30.2848C7.13829 30.435 6.82 30.5132 6.49717 30.5132C6.17434 30.5132 5.85605 30.435 5.56809 30.2848C5.30015 30.1397 5.0762 29.9215 4.92073 29.6542C4.76666 29.3797 4.68555 29.0684 4.68555 28.7514C4.68555 28.4345 4.76666 28.1231 4.92073 27.8486C5.07571 27.5809 5.29979 27.3626 5.56809 27.218C5.85624 27.0686 6.17446 26.9907 6.49717 26.9907C6.81988 26.9907 7.1381 27.0686 7.42625 27.218C7.69347 27.3642 7.91719 27.5821 8.07361 27.8486ZM7.53586 28.7453C7.53954 28.5484 7.49289 28.354 7.40056 28.1816C7.31262 28.0181 7.18137 27.8837 7.02208 27.794C6.85948 27.7038 6.67763 27.6566 6.49289 27.6566C6.30815 27.6566 6.1263 27.7038 5.9637 27.794C5.80765 27.8858 5.6791 28.0198 5.59206 28.1816C5.50464 28.3562 5.45903 28.5497 5.45903 28.7461C5.45903 28.9425 5.50464 29.1361 5.59206 29.3107C5.6787 29.4723 5.80739 29.6059 5.9637 29.6965C6.12551 29.7892 6.30767 29.8379 6.49289 29.8379C6.67811 29.8379 6.86027 29.7892 7.02208 29.6965C7.17912 29.6069 7.30805 29.4731 7.39371 29.3107C7.48841 29.1383 7.53743 28.9433 7.53586 28.7453Z" fill="white"/>
<path d="M2.05509 30.095L1.08062 28.455V30.4544H0.361328V27.0493H0.994988L2.23491 29.1667L3.45599 27.0493H4.08965L4.09479 30.4544H3.37378L3.37036 28.4163L2.39589 30.095H2.05509Z" fill="white"/>
<path d="M0 23.9351H44V24.9733H0V23.9351Z" fill="white"/>
<path d="M132 23.9351H88V24.9733H132V23.9351Z" fill="white"/>
<path d="M88.0641 23.9351H43.9199V24.9734H88.0641V23.9351Z" fill="white"/>
</svg>
