<svg width="33" height="23" viewBox="0 0 33 23" fill="none" xmlns="http://www.w3.org/2000/svg">
<path fill-rule="evenodd" clip-rule="evenodd" d="M0 1.5C0 0.671573 0.67157 0 1.5 0H31.5C32.3284 0 33 0.671573 33 1.5C33 2.32843 32.3284 3 31.5 3H1.5C0.67157 3 0 2.32843 0 1.5ZM0 11.5C0 10.6716 0.67157 10 1.5 10H31.5C32.3284 10 33 10.6716 33 11.5C33 12.3284 32.3284 13 31.5 13H1.5C0.67157 13 0 12.3284 0 11.5ZM1.5 20C0.67157 20 0 20.6716 0 21.5C0 22.3284 0.67157 23 1.5 23H31.5C32.3284 23 33 22.3284 33 21.5C33 20.6716 32.3284 20 31.5 20H1.5Z" fill="white"/>
</svg>
