<svg width="202" height="61" viewBox="0 0 202 61" fill="none" xmlns="http://www.w3.org/2000/svg">
<g clip-path="url(#clip0_17_10862)">
<path d="M184.357 16.5673H187.078L192.705 6.62695H202L194.141 19.5769L201.961 33.2878H191.913L186.85 23.6539H184.357V33.2878H175.441V6.62695H184.357V16.5673Z" fill="white"/>
<path d="M197.049 41.0742H201.444V42.0387H199.822V46.1818H198.663V42.0387H197.049V41.0742Z" fill="white"/>
<path d="M193.865 43.1326H196.219V44.0521H193.865V45.2332H196.623V46.1844H192.699V41.0742H196.531V42.0202H193.865V43.1326Z" fill="white"/>
<path d="M187.564 41.0742H191.96V42.0387H190.337V46.1818H189.179V42.0387H187.564V41.0742Z" fill="white"/>
<path d="M186.826 46.1818H185.67V42.8631L183.251 46.1818H182.143V41.0742H183.309V44.4035L185.725 41.0742H186.826V46.1818Z" fill="white"/>
<path d="M181.378 41.891L180.623 42.5913C180.468 42.402 180.274 42.2501 180.053 42.1467C179.833 42.0434 179.592 41.9912 179.349 41.9941C179.055 41.9884 178.765 42.0604 178.508 42.2028C178.267 42.3377 178.068 42.5382 177.934 42.7815C177.798 43.0429 177.728 43.3334 177.728 43.6284C177.728 43.9233 177.798 44.2138 177.934 44.4752C178.068 44.7185 178.267 44.919 178.508 45.0539C178.765 45.1971 179.055 45.27 179.349 45.2653C179.593 45.2678 179.835 45.2144 180.055 45.1092C180.276 45.0039 180.47 44.8495 180.623 44.6575L181.378 45.3577C181.136 45.6534 180.828 45.8863 180.479 46.0368C180.101 46.1977 179.694 46.2778 179.284 46.272C178.795 46.2788 178.313 46.1616 177.881 45.9311C177.474 45.714 177.134 45.3876 176.899 44.9878C176.663 44.5737 176.539 44.1045 176.539 43.627C176.539 43.1496 176.663 42.6804 176.899 42.2662C177.135 41.8678 177.475 41.5424 177.881 41.3256C178.314 41.0923 178.798 40.9724 179.289 40.9768C179.699 40.9716 180.105 41.0507 180.484 41.2093C180.83 41.3596 181.136 41.5895 181.378 41.8805" fill="white"/>
<path d="M175.77 41.9418C175.945 42.2398 176.038 42.5798 176.038 42.9261C176.038 43.2724 175.945 43.6124 175.77 43.9104C175.585 44.1967 175.318 44.4203 175.005 44.5524C174.636 44.7076 174.239 44.7832 173.839 44.7744H172.817V46.1827H171.643V41.0752H173.839C174.239 41.0647 174.637 41.1413 175.005 41.2998C175.316 41.4351 175.582 41.6581 175.77 41.9418ZM174.85 42.9301C174.859 42.8067 174.84 42.6829 174.795 42.568C174.75 42.4532 174.679 42.3502 174.588 42.2668C174.355 42.0983 174.07 42.0179 173.784 42.0396H172.83V43.8126H173.784C174.07 43.8307 174.354 43.7496 174.588 43.5827C174.679 43.5016 174.75 43.4005 174.795 43.2873C174.841 43.1741 174.86 43.0519 174.85 42.9301Z" fill="white"/>
<path d="M147.826 12.4531H156.325V21.8624L163.467 12.4531H171.324V33.2877H162.822V23.8441L155.72 33.2877H147.826V12.4531Z" fill="white"/>
<path d="M167.938 43.1326H170.291V44.0521H167.938V45.2332H170.695V46.1844H166.771V41.0742H170.603V42.0202H167.938V43.1326Z" fill="white"/>
<path d="M165.845 44.7475C165.853 44.9525 165.811 45.1564 165.722 45.3408C165.633 45.5252 165.5 45.6845 165.334 45.8044C164.9 46.0842 164.389 46.2166 163.875 46.1823H161.377V41.0747H163.736C164.219 41.0452 164.7 41.1651 165.114 41.4182C165.273 41.5245 165.401 41.6704 165.487 41.8418C165.573 42.0132 165.613 42.2041 165.604 42.3958C165.609 42.6319 165.544 42.864 165.416 43.0617C165.286 43.26 165.105 43.4182 164.891 43.5188C165.168 43.593 165.416 43.7507 165.602 43.9706C165.769 44.1937 165.856 44.4678 165.848 44.7475M164.658 44.6497C164.658 44.2269 164.396 44.0156 163.833 44.0156H162.546V45.3076H163.833C164.386 45.3076 164.658 45.0883 164.658 44.6497ZM164.218 43.0353C164.279 42.9769 164.327 42.9069 164.361 42.8295C164.394 42.752 164.412 42.6686 164.414 42.5841C164.415 42.4996 164.4 42.4156 164.369 42.337C164.338 42.2584 164.292 42.1868 164.234 42.1263L164.218 42.1105C164.049 41.9921 163.846 41.9353 163.641 41.9493H162.548V43.1912H163.641C163.846 43.2052 164.05 43.1504 164.221 43.0353" fill="white"/>
<path d="M160.117 46.1818H158.961V42.8631L156.542 46.1818H155.434V41.0742H156.6V44.4035L159.019 41.0742H160.117V46.1818Z" fill="white"/>
<path d="M155.387 54.4043V51.083L152.968 54.4043H151.859V49.2969H153.026V52.6261L155.445 49.2969H156.548V54.4043H155.387Z" fill="white"/>
<path d="M149.516 41.0742H150.69V43.0877H152.993V41.0742H154.168V46.1818H152.993V44.0864H150.69V46.1818H149.516V41.0742Z" fill="white"/>
<path d="M149.443 54.4043V51.083L147.027 54.4043H145.918V49.2969H147.084V52.6261L149.503 49.2969H150.601V54.4043H149.443Z" fill="white"/>
<path d="M148.96 41.0742L146.803 45.1169C146.627 45.4685 146.37 45.7722 146.053 46.0021C145.774 46.1971 145.442 46.3013 145.102 46.3007C144.818 46.2971 144.538 46.2379 144.276 46.1263L144.559 45.2279C144.723 45.2834 144.893 45.3154 145.065 45.323C145.202 45.324 145.337 45.2875 145.456 45.2173C145.584 45.1304 145.693 45.0169 145.775 44.8844L145.817 44.8263L143.82 41.0742H145.073L146.42 43.8196L147.809 41.0742H148.96Z" fill="white"/>
<path d="M134.148 6.62695L145.717 33.2878H136.491L134.709 28.6426H124.666L122.892 33.2878H113.824L125.385 6.62695H134.148ZM132.261 22.1663L129.693 15.4628L127.122 22.1663H132.261Z" fill="white"/>
<path d="M144.357 50.2536C144.773 50.6461 145.019 51.1895 145.038 51.7642C145.058 52.339 144.851 52.8981 144.461 53.3186C144.427 53.3556 144.393 53.3899 144.357 53.4243C143.901 53.8101 143.248 54.0267 142.394 54.0716V54.6239H141.314V54.0637C140.454 54.0135 139.796 53.7995 139.34 53.4084C138.924 53.0205 138.677 52.482 138.654 51.9108C138.631 51.3397 138.834 50.7827 139.217 50.3619C139.257 50.3197 139.298 50.2774 139.34 50.2377C139.796 49.8572 140.454 49.6379 141.314 49.5851V49.0566H142.394V49.5851C143.248 49.6327 143.901 49.8493 144.357 50.243M143.536 52.7426C143.665 52.6273 143.765 52.4842 143.831 52.324C143.896 52.1638 143.924 51.9907 143.914 51.8178C143.914 51.0383 143.405 50.6076 142.394 50.5205V53.1389C142.806 53.1272 143.204 52.989 143.536 52.7426ZM141.314 53.1389V50.5205C140.901 50.5315 140.501 50.6678 140.166 50.9115C140.039 51.0252 139.939 51.1667 139.875 51.3251C139.81 51.4836 139.783 51.6548 139.794 51.8257C139.794 52.5946 140.302 53.0332 141.314 53.1468" fill="white"/>
<path d="M141.077 46.1818H139.918V42.8631L137.499 46.1818H136.391V41.0742H137.557V44.4035L139.976 41.0742H141.077V46.1818Z" fill="white"/>
<path d="M139.324 39.6289H140.137C140.145 39.7855 140.116 39.9418 140.054 40.0857C139.991 40.2296 139.897 40.3572 139.777 40.4586C139.492 40.6575 139.15 40.7578 138.803 40.744V40.16C138.939 40.1572 139.07 40.1098 139.176 40.0253C139.229 39.9741 139.271 39.9124 139.299 39.8441C139.326 39.7759 139.34 39.7026 139.337 39.6289" fill="white"/>
<path d="M138.803 40.1607V40.7446H138.719C137.791 40.7446 137.325 40.3694 137.314 39.627H138.116C138.116 39.981 138.329 40.1554 138.719 40.1554H138.79" fill="white"/>
<path d="M136.17 49.2969L138.437 54.4043H137.208L136.757 53.3105H134.398L133.95 54.4043H132.75L135.007 49.2969H136.17ZM136.39 52.4121L135.583 50.4568L134.781 52.4121H136.39Z" fill="white"/>
<path d="M135.133 41.0742H133.967V46.1818H135.133V41.0742Z" fill="white"/>
<path d="M133.323 44.4114C133.338 44.659 133.297 44.9069 133.203 45.136C133.108 45.3651 132.963 45.5692 132.778 45.7326C132.333 46.0605 131.789 46.2213 131.239 46.1871H128.943V41.0742H130.11V42.7521H131.399C131.907 42.7196 132.41 42.8663 132.822 43.1669C132.993 43.3211 133.127 43.5128 133.212 43.7272C133.298 43.9415 133.334 44.1729 133.317 44.4035M132.135 44.4247C132.135 43.8962 131.816 43.632 131.168 43.632H130.12V45.3125H131.168C131.425 45.3284 131.679 45.2484 131.881 45.0879C131.97 45.0043 132.04 44.9021 132.085 44.7883C132.13 44.6746 132.15 44.5523 132.143 44.4299" fill="white"/>
<path d="M132.535 50.1671C132.707 50.4658 132.797 50.8049 132.797 51.15C132.797 51.4952 132.707 51.8343 132.535 52.133C132.349 52.4187 132.083 52.6422 131.77 52.775C131.401 52.9314 131.004 53.0071 130.604 52.997H129.582V54.4053H128.418V49.2978H130.612C131.012 49.2873 131.41 49.3639 131.778 49.5224C132.09 49.6572 132.356 49.8813 132.543 50.1671M131.626 51.15C131.632 51.0259 131.611 50.9019 131.562 50.7875C131.514 50.673 131.441 50.5711 131.348 50.4895C131.115 50.3226 130.832 50.2414 130.546 50.2596H129.589V52.0352H130.546C130.832 52.0537 131.115 51.9715 131.348 51.8027C131.441 51.7232 131.515 51.6228 131.563 51.5095C131.612 51.3962 131.633 51.2731 131.626 51.15Z" fill="white"/>
<path d="M125.276 50.2587L125.281 54.4043H124.115V49.2969H127.693L127.685 50.2587H125.276Z" fill="white"/>
<path d="M123.033 41.0742H124.207V43.0877H126.508V41.0742H127.682V46.1818H126.508V44.0864H124.207V46.1818H123.033V41.0742Z" fill="white"/>
<path d="M122.849 50.497C123.026 50.7895 123.144 51.1143 123.196 51.4528C123.249 51.7913 123.235 52.137 123.155 52.4699C123.075 52.8029 122.93 53.1167 122.73 53.3934C122.529 53.6701 122.277 53.9043 121.987 54.0826C121.947 54.1064 121.908 54.1301 121.866 54.1513C121.425 54.3754 120.938 54.4922 120.444 54.4922C119.95 54.4922 119.463 54.3754 119.022 54.1513C118.612 53.9335 118.27 53.6063 118.032 53.2054C117.796 52.7936 117.672 52.3266 117.672 51.8512C117.672 51.3758 117.796 50.9088 118.032 50.497C118.269 50.0963 118.612 49.7698 119.022 49.5538C119.462 49.3259 119.95 49.207 120.444 49.207C120.939 49.207 121.426 49.3259 121.866 49.5538C122.275 49.7712 122.618 50.0974 122.857 50.497M122.031 51.8499C122.037 51.5546 121.965 51.263 121.824 51.0044C121.693 50.7608 121.496 50.5601 121.255 50.4257C121.008 50.2866 120.729 50.2137 120.446 50.2137C120.162 50.2137 119.883 50.2866 119.636 50.4257C119.396 50.5616 119.2 50.762 119.067 51.0044C118.931 51.2657 118.861 51.5563 118.861 51.8512C118.861 52.1461 118.931 52.4367 119.067 52.698C119.2 52.9407 119.397 53.1417 119.636 53.2793C119.885 53.4146 120.163 53.4855 120.446 53.4855C120.728 53.4855 121.007 53.4146 121.255 53.2793C121.495 53.1432 121.692 52.9417 121.824 52.698C121.965 52.4384 122.037 52.146 122.031 51.8499Z" fill="white"/>
<path d="M117.117 41.0742H118.291V43.0877H120.592V41.0742H121.766V46.1818H120.592V44.0864H118.291V46.1818H117.117V41.0742Z" fill="white"/>
<path d="M118.395 6.62695V13.5947H107.026V33.2878H98.2617V6.62695H118.395Z" fill="white"/>
<path d="M117.354 49.2969V50.2587H115.734V54.4043H114.573V50.2587H112.959V49.2969H117.354Z" fill="white"/>
<path d="M113.412 43.1326H115.766V44.0521H113.412V45.2332H116.172V46.1844H112.246V41.0742H116.078V42.0202H113.412V43.1326Z" fill="white"/>
<path d="M112.577 50.1671C112.749 50.4658 112.839 50.8049 112.839 51.15C112.839 51.4952 112.749 51.8343 112.577 52.133C112.391 52.4187 112.124 52.6422 111.812 52.775C111.443 52.9314 111.045 53.0071 110.645 52.997H109.621V54.4053H108.449V49.2978H110.645C111.046 49.2873 111.443 49.3639 111.812 49.5224C112.124 49.6572 112.39 49.8813 112.577 50.1671ZM111.647 51.15C111.657 51.0258 111.638 50.9009 111.593 50.7849C111.548 50.669 111.476 50.5652 111.385 50.4816C111.151 50.3147 110.868 50.2335 110.583 50.2517H109.623V52.0273H110.583C110.868 52.0485 111.151 51.9691 111.385 51.8027C111.477 51.7229 111.551 51.6224 111.599 51.5091C111.646 51.3958 111.667 51.2729 111.66 51.15" fill="white"/>
<path d="M111.317 44.7471C111.326 44.9519 111.284 45.1556 111.195 45.34C111.106 45.5244 110.974 45.6839 110.809 45.8041C110.375 46.0839 109.863 46.2163 109.349 46.1819H106.852V41.0743H109.21C109.694 41.0462 110.174 41.166 110.589 41.4178C110.746 41.5254 110.874 41.6716 110.959 41.8427C111.045 42.0137 111.086 42.204 111.079 42.3955C111.084 42.6315 111.018 42.8637 110.89 43.0613C110.761 43.2596 110.579 43.4179 110.366 43.5185C110.642 43.5927 110.889 43.7504 111.074 43.9703C111.241 44.1933 111.328 44.4674 111.32 44.7471M110.133 44.6494C110.133 44.2266 109.871 44.0152 109.307 44.0152H108.02V45.3073H109.307C109.86 45.3073 110.133 45.088 110.133 44.6494ZM109.693 43.0349C109.753 42.9765 109.802 42.9066 109.835 42.8291C109.869 42.7517 109.887 42.6683 109.889 42.5838C109.89 42.4992 109.875 42.4152 109.844 42.3367C109.813 42.2581 109.767 42.1865 109.708 42.126L109.693 42.1101C109.524 41.9918 109.321 41.9349 109.116 41.9489H108.023V43.1908H109.116C109.321 43.2049 109.524 43.1501 109.695 43.0349" fill="white"/>
<path d="M105.507 49.2969L107.774 54.4043H106.545L106.097 53.3105H103.738L103.287 54.4043H102.21L102.137 54.2907L104.346 49.2969H105.507ZM105.727 52.4121L104.923 50.4568L104.118 52.4121H105.727Z" fill="white"/>
<path d="M101.721 41.0742H106.116V42.0387H104.493V46.1818H103.332V42.0387H101.721V41.0742Z" fill="white"/>
<path d="M102.094 54.4046L102.144 54.291L102.217 54.4046H102.094Z" fill="white"/>
<path d="M100.882 54.4043L99.564 52.346H98.7541V54.4043H97.5879V49.2969H98.7541V51.3631H99.5954L100.927 49.2969H102.166L100.507 51.7621L102.143 54.2907L102.093 54.4043H100.882Z" fill="white"/>
<path d="M101.524 41.8904L100.772 42.5906C100.617 42.4013 100.423 42.2494 100.202 42.1461C99.9819 42.0427 99.7413 41.9906 99.4982 41.9934C99.2045 41.9878 98.9145 42.0598 98.6569 42.2022C98.4149 42.337 98.2152 42.5375 98.0803 42.7808C97.9466 43.0428 97.8768 43.3331 97.8768 43.6277C97.8768 43.9223 97.9466 44.2126 98.0803 44.4746C98.2152 44.7179 98.4149 44.9184 98.6569 45.0532C98.9143 45.1965 99.2043 45.2693 99.4982 45.2646C99.7423 45.2672 99.9838 45.2138 100.204 45.1085C100.425 45.0032 100.619 44.8488 100.772 44.6569L101.524 45.3571C101.284 45.654 100.975 45.8872 100.625 46.0362C100.247 46.1971 99.8403 46.2772 99.43 46.2713C98.9425 46.2789 98.4609 46.1616 98.0305 45.9305C97.6222 45.7136 97.2811 45.3871 97.0451 44.9872C96.812 44.5722 96.6895 44.1033 96.6895 43.6264C96.6895 43.1494 96.812 42.6806 97.0451 42.2656C97.2813 41.8664 97.6223 41.5409 98.0305 41.3249C98.4641 41.0949 98.9481 40.9786 99.4379 40.9867C99.847 40.9815 100.253 41.0606 100.63 41.2192C100.977 41.3686 101.283 41.5986 101.524 41.8904Z" fill="white"/>
<path d="M95.9207 41.9419C96.0944 42.2403 96.186 42.5801 96.186 42.9261C96.186 43.2721 96.0944 43.6119 95.9207 43.9104C95.7344 44.1961 95.468 44.4196 95.1554 44.5524C94.7857 44.7088 94.3874 44.7845 93.9866 44.7744H92.9671V46.1827H91.793V41.0752H93.9866C94.3877 41.0646 94.7863 41.1412 95.1554 41.2998C95.4655 41.4367 95.7309 41.6593 95.9207 41.9419ZM95.0008 42.9301C95.0084 42.8057 94.9875 42.6812 94.9398 42.5662C94.8921 42.4512 94.8188 42.3488 94.7256 42.2669C94.4922 42.0983 94.2074 42.0179 93.921 42.0396H92.9671V43.8126H93.921C94.2074 43.8307 94.4913 43.7496 94.7256 43.5827C94.8175 43.502 94.89 43.4014 94.9377 43.2883C94.9854 43.1753 95.007 43.0528 95.0008 42.9301Z" fill="white"/>
<path d="M93.1343 54.4043V51.083L90.718 54.4043H89.6094V49.2969H90.7756V52.6261L93.1946 49.2969H94.2927V54.4043H93.1343Z" fill="white"/>
<path d="M76.0842 20.4911L78.3905 16.9768L85.4169 6.62695H93.5754V33.2878H84.8115V19.4632L75.7462 33.2878H67.3937H67.3203V6.62695H76.0842V20.3748V20.4911Z" fill="white"/>
<path d="M88.8445 41.0742L91.1089 46.1818H89.8928L89.4421 45.0879H87.0834L86.6352 46.1818H85.4375L87.694 41.0742H88.8445ZM89.0621 44.1921L88.2549 42.2342L87.4529 44.1921H89.0621Z" fill="white"/>
<path d="M85.1448 54.4043V51.083L82.7258 54.4043H81.6172V49.2969H82.7861V52.6261L85.2024 49.2969H86.3032V54.4043H85.1448Z" fill="white"/>
<path d="M85.1758 45.2205V47.2418H84.0882V46.1849H80.5134V47.2418H79.4258V45.2205H79.6302C79.9342 45.2205 80.1544 44.9853 80.2723 44.5467C80.4219 43.9334 80.5001 43.3047 80.5055 42.6733L80.5632 41.0879H84.4577V45.2337L85.1758 45.2205ZM83.3072 45.2205V42.0338H81.5696L81.5486 42.7763C81.5334 43.2884 81.4826 43.7987 81.3966 44.3036C81.3529 44.6321 81.2306 44.945 81.0402 45.2152L83.3072 45.2205Z" fill="white"/>
<path d="M79.2007 54.4043V51.083L76.7818 54.4043H75.6758V49.2969H76.8394V52.6261L79.2584 49.2969H80.3591V54.4043H79.2007Z" fill="white"/>
<path d="M79.4694 41.0742L77.3125 45.1169C77.137 45.4685 76.8799 45.7722 76.563 46.0021C76.2835 46.1971 75.9515 46.3013 75.6116 46.3007C75.3278 46.2971 75.0474 46.2379 74.7861 46.1263L75.0665 45.2279C75.2308 45.2832 75.4019 45.3152 75.575 45.323C75.7122 45.324 75.8471 45.2875 75.9655 45.2173C76.0941 45.1304 76.2031 45.0169 76.2852 44.8844L76.3271 44.8263L74.3301 41.0742H75.5828L76.9273 43.8196L78.3189 41.0742H79.4694Z" fill="white"/>
<path d="M74.495 52.219C74.6668 52.4463 74.7554 52.7263 74.7458 53.0119C74.7362 53.2974 74.6291 53.5708 74.4426 53.7859C74.2177 54.0302 73.9344 54.2122 73.6197 54.3143C73.2557 54.4416 72.8726 54.5041 72.4875 54.4993C72.134 54.499 71.7819 54.4546 71.4392 54.3672C71.0954 54.2801 70.7655 54.1449 70.459 53.9655L70.8207 53.1174C71.0484 53.2578 71.2958 53.3629 71.5545 53.4292C71.8109 53.4985 72.0752 53.534 72.3407 53.5349C72.6411 53.5451 72.9392 53.4797 73.2082 53.3446C73.3095 53.2987 73.3956 53.2246 73.4564 53.131C73.5173 53.0373 73.5503 52.9281 73.5515 52.8162C73.5538 52.7301 73.5332 52.6449 73.4917 52.5696C73.4502 52.4943 73.3894 52.4316 73.3157 52.3881C73.1201 52.2804 72.8988 52.2292 72.6762 52.2402H71.4365V51.3497H72.5949C72.7906 51.3608 72.9849 51.31 73.1505 51.2044C73.2137 51.159 73.2647 51.0986 73.299 51.0285C73.3333 50.9584 73.3498 50.8809 73.3471 50.8028C73.3466 50.7059 73.3196 50.6111 73.2693 50.5286C73.2189 50.4461 73.147 50.3792 73.0614 50.3351C72.8361 50.2138 72.5828 50.1554 72.3276 50.166C72.095 50.1689 71.8636 50.2 71.6383 50.2585C71.4035 50.3169 71.1771 50.4057 70.9648 50.5227L70.6084 49.6032C71.1461 49.3234 71.7435 49.1801 72.3486 49.1857C72.7209 49.1836 73.091 49.2435 73.4441 49.3627C73.7454 49.4614 74.0163 49.6371 74.2303 49.8727C74.4262 50.0888 74.5322 50.3726 74.5265 50.6654C74.532 50.8985 74.4631 51.1273 74.3299 51.318C74.1996 51.5104 74.0178 51.6616 73.8057 51.754C74.0774 51.841 74.3173 52.0075 74.495 52.2322" fill="white"/>
<path d="M74.2286 41.8904L73.4764 42.5906C73.3219 42.4013 73.1273 42.2494 72.9069 42.1461C72.6864 42.0427 72.4458 41.9906 72.2027 41.9934C71.909 41.9878 71.619 42.0598 71.3614 42.2022C71.1188 42.3362 70.9189 42.5369 70.7849 42.7808C70.6494 43.0422 70.5786 43.3328 70.5786 43.6277C70.5786 43.9226 70.6494 44.2132 70.7849 44.4746C70.9189 44.7185 71.1188 44.9192 71.3614 45.0532C71.6188 45.1965 71.9088 45.2693 72.2027 45.2646C72.4468 45.2672 72.6883 45.2138 72.9089 45.1085C73.1296 45.0032 73.3236 44.8488 73.4764 44.6569L74.2286 45.3571C73.9883 45.6528 73.6808 45.8857 73.3323 46.0362C72.9543 46.1969 72.5474 46.2769 72.1372 46.2713C71.6489 46.2782 71.1667 46.1609 70.7351 45.9305C70.3264 45.715 69.9858 45.3882 69.7523 44.9872C69.5154 44.5734 69.3906 44.1041 69.3906 43.6264C69.3906 43.1486 69.5154 42.6793 69.7523 42.2656C69.986 41.8654 70.3265 41.5395 70.7351 41.3249C71.1686 41.0949 71.6526 40.9786 72.1424 40.9867C72.5515 40.9815 72.9573 41.0606 73.3349 41.2192C73.6807 41.3695 73.9868 41.5994 74.2286 41.8904Z" fill="white"/>
<path d="M69.5698 51.3552V52.2747H67.219V53.4558H69.9761V54.4043H66.0527V49.2969H69.8843V50.2454H67.219V51.3552H69.5698Z" fill="white"/>
<path d="M68.4699 42.2732C68.7067 42.6846 68.8315 43.1517 68.8315 43.6274C68.8315 44.103 68.7067 44.5702 68.4699 44.9816C68.2316 45.3812 67.8901 45.7082 67.4819 45.9275C67.0412 46.1527 66.5541 46.27 66.0601 46.27C65.5661 46.27 65.079 46.1527 64.6383 45.9275C64.227 45.7106 63.8833 45.3832 63.645 44.9816C63.4093 44.5698 63.2852 44.1028 63.2852 43.6274C63.2852 43.152 63.4093 42.6849 63.645 42.2732C63.8833 41.8715 64.227 41.5442 64.6383 41.3273C65.0793 41.1031 65.5663 40.9863 66.0601 40.9863C66.554 40.9863 67.0409 41.1031 67.4819 41.3273C67.8901 41.5466 68.2316 41.8735 68.4699 42.2732ZM67.6444 43.6181C67.6496 43.3232 67.5792 43.032 67.44 42.7726C67.3068 42.53 67.11 42.3289 66.8712 42.1913C66.6219 42.056 66.3432 41.9852 66.0601 41.9852C65.777 41.9852 65.4983 42.056 65.249 42.1913C65.0102 42.3289 64.8135 42.53 64.6803 42.7726C64.5448 43.034 64.474 43.3245 64.474 43.6194C64.474 43.9144 64.5448 44.2049 64.6803 44.4663C64.815 44.7098 65.0147 44.9103 65.2568 45.045C65.5049 45.184 65.7841 45.257 66.068 45.257C66.3518 45.257 66.631 45.184 66.8791 45.045C67.1183 44.9091 67.3152 44.7087 67.4478 44.4663C67.5883 44.2064 67.6588 43.914 67.6522 43.6181" fill="white"/>
<path d="M65.2584 53.443V55.4643H64.1734V54.4075H60.5987V55.4643H59.5137V53.443H59.7155C60.0195 53.443 60.2396 53.2105 60.3602 52.7719C60.5089 52.1577 60.5863 51.5281 60.5908 50.8959L60.6511 49.3105H64.5456V53.4562L65.2584 53.443ZM63.3924 53.443V50.2591H61.6549L61.6313 51.0042C61.6174 51.5172 61.5666 52.0285 61.4793 52.5341C61.4376 52.8619 61.3161 53.1742 61.1255 53.443H63.3924Z" fill="white"/>
<path d="M63.4328 42.0387H61.0217L61.0295 46.1818H59.8633V41.0742H63.4407L63.4328 42.0387Z" fill="white"/>
<path d="M36.3789 6.62695H45.1428V20.4911L54.2501 6.62695H62.634V33.2878H53.8701V19.4632L44.8047 33.2878H36.3789V6.62695Z" fill="white"/>
<path d="M58.912 50.497C59.2682 51.0881 59.377 51.7977 59.2143 52.4696C59.0516 53.1415 58.6308 53.7208 58.0445 54.0799L57.9187 54.1513C57.4778 54.3754 56.9908 54.4922 56.4969 54.4922C56.0031 54.4922 55.5161 54.3754 55.0752 54.1513C54.6651 53.9335 54.3224 53.6063 54.0845 53.2053C53.8487 52.7936 53.7246 52.3266 53.7246 51.8512C53.7246 51.3758 53.8487 50.9088 54.0845 50.497C54.3218 50.0963 54.6648 49.7698 55.0752 49.5538C55.515 49.3259 56.0024 49.207 56.4969 49.207C56.9915 49.207 57.4789 49.3259 57.9187 49.5538C58.3281 49.7712 58.6707 50.0974 58.9094 50.497M58.0838 51.8499C58.0891 51.555 58.0186 51.2637 57.8794 51.0044C57.7453 50.7631 57.5487 50.5631 57.3107 50.4257C57.0624 50.2871 56.7833 50.2144 56.4996 50.2144C56.2158 50.2144 55.9367 50.2871 55.6884 50.4257C55.4479 50.5607 55.2499 50.7613 55.1171 51.0044C54.9833 51.2663 54.9135 51.5566 54.9135 51.8512C54.9135 52.1458 54.9833 52.4361 55.1171 52.698C55.2513 52.9408 55.4489 53.1418 55.6884 53.2793C55.9354 53.4195 56.2149 53.4907 56.4983 53.4854C56.7822 53.489 57.0622 53.418 57.3107 53.2793C57.5484 53.1403 57.7447 52.9395 57.8794 52.698C58.0184 52.4376 58.0888 52.1456 58.0838 51.8499Z" fill="white"/>
<path d="M56.5544 46.1818H55.3987V42.8631L52.9797 46.1818H51.8711V41.0742H53.0373V44.4035L55.4563 41.0742H56.5544V46.1818Z" fill="white"/>
<path d="M54.8007 39.6289H55.6133C55.6217 39.7853 55.5939 39.9416 55.5319 40.0855C55.4699 40.2294 55.3755 40.3571 55.256 40.4586C54.9706 40.6581 54.6274 40.7584 54.2793 40.744V40.16C54.416 40.1576 54.5481 40.1102 54.6551 40.0253C54.7087 39.9746 54.7507 39.9129 54.7781 39.8445C54.8055 39.776 54.8177 39.7025 54.8139 39.6289" fill="white"/>
<path d="M54.279 40.1607V40.7446H54.1977C53.2699 40.7446 52.8008 40.3694 52.793 39.627H53.5949C53.5949 39.981 53.8046 40.1554 54.1977 40.1554H54.2659" fill="white"/>
<path d="M52.7443 51.3552V52.2747H50.3909V53.4558H53.1506V54.4043H49.2246V49.2969H53.0562V50.2454H50.3909V51.3552H52.7443Z" fill="white"/>
<path d="M50.6091 46.1818H49.4507V42.8631L47.0344 46.1818H45.9258V41.0742H47.0894V44.4035L49.5084 41.0742H50.6091V46.1818Z" fill="white"/>
<path d="M46.0926 50.2587L46.0979 54.4043H44.9316V49.2969H48.509L48.5012 50.2587H46.0926Z" fill="white"/>
<path d="M41.9136 46.1818H40.75V41.0742H41.9136V43.1379H42.7549L44.0863 41.0742H45.3259L43.6669 43.5421L45.3783 46.1818H44.0443L42.7261 44.1261H41.9136V46.1818Z" fill="white"/>
<path d="M39.9987 41.8904L39.2439 42.5906C39.0895 42.4013 38.8948 42.2494 38.6744 42.1461C38.454 42.0427 38.2133 41.9905 37.9702 41.9934C37.6774 41.9877 37.3882 42.0597 37.1316 42.2022C36.8879 42.3347 36.6876 42.5358 36.555 42.7808C36.4212 43.0427 36.3514 43.3331 36.3514 43.6277C36.3514 43.9223 36.4212 44.2126 36.555 44.4745C36.6876 44.7196 36.8879 44.9206 37.1316 45.0532C37.388 45.1964 37.6772 45.2693 37.9702 45.2646C38.2143 45.2671 38.4558 45.2138 38.6765 45.1085C38.8971 45.0032 39.0911 44.8488 39.2439 44.6569L39.9987 45.3571C39.7577 45.6531 39.4493 45.8861 39.0998 46.0361C38.7219 46.1971 38.3149 46.2771 37.9047 46.2713C37.4164 46.2781 36.9342 46.1609 36.5026 45.9304C36.095 45.7134 35.7549 45.3869 35.5198 44.9871C35.2841 44.573 35.1602 44.1038 35.1602 43.6264C35.1602 43.1489 35.2841 42.6797 35.5198 42.2656C35.7557 41.8671 36.0957 41.5417 36.5026 41.3249C36.9372 41.0951 37.4219 40.9788 37.9126 40.9867C38.3216 40.9815 38.7274 41.0606 39.105 41.2192C39.4508 41.3695 39.7569 41.5994 39.9987 41.8904Z" fill="white"/>
<path d="M34.5948 44.7471C34.6029 44.9521 34.5604 45.156 34.4712 45.3404C34.3821 45.5249 34.2489 45.6841 34.0838 45.804C33.6497 46.0838 33.1381 46.2163 32.624 46.1819H30.1133V41.0743H32.472C32.9545 41.0463 33.4341 41.166 33.8479 41.4178C34.0064 41.5244 34.1351 41.6703 34.2214 41.8415C34.3077 42.0128 34.3487 42.2036 34.3406 42.3955C34.3458 42.6315 34.28 42.8637 34.1519 43.0613C34.0218 43.2591 33.8406 43.4172 33.6278 43.5185C33.9058 43.5899 34.1543 43.7481 34.338 43.9703C34.5056 44.1933 34.5926 44.4674 34.5843 44.7471M33.3971 44.6494C33.3971 44.2266 33.135 44.0152 32.569 44.0152H31.2848V45.3073H32.569C33.1219 45.3073 33.3971 45.088 33.3971 44.6494ZM32.9568 43.0349C33.0225 42.9777 33.0742 42.9059 33.1078 42.8253C33.1415 42.7446 33.1562 42.6572 33.1508 42.5699C33.1564 42.4828 33.1412 42.3956 33.1066 42.3156C33.0719 42.2356 33.0188 42.1652 32.9516 42.1101C32.7832 41.9918 32.5798 41.9349 32.375 41.9489H31.2848V43.1908H32.375C32.5807 43.2047 32.7851 43.1499 32.9568 43.0349Z" fill="white"/>
<path d="M7.32773 6.62695L15.9423 20.8346L24.3288 6.62695H31.6591L31.7325 33.2878H23.6107L23.5347 21.1385L17.7925 30.8886H13.864L8.12183 21.5559V33.2878H0V6.62695H7.32773Z" fill="white"/>
<path d="M28.8469 42.2732C29.0837 42.6846 29.2084 43.1517 29.2084 43.6274C29.2084 44.103 29.0837 44.5702 28.8469 44.9816C28.6068 45.3807 28.2646 45.7075 27.8562 45.9275C27.4156 46.1527 26.9285 46.27 26.4344 46.27C25.9404 46.27 25.4533 46.1527 25.0127 45.9275C24.6026 45.7098 24.2599 45.3825 24.022 44.9816C23.7862 44.5698 23.6621 44.1028 23.6621 43.6274C23.6621 43.152 23.7862 42.6849 24.022 42.2732C24.2592 41.8716 24.6021 41.5442 25.0127 41.3273C25.4536 41.1031 25.9406 40.9863 26.4344 40.9863C26.9283 40.9863 27.4153 41.1031 27.8562 41.3273C28.2651 41.5465 28.6075 41.8734 28.8469 42.2732ZM28.0213 43.6181C28.027 43.3229 27.9556 43.0313 27.8143 42.7726C27.6811 42.53 27.4844 42.3289 27.2456 42.1913C26.9967 42.056 26.7185 41.9852 26.4358 41.9852C26.153 41.9852 25.8748 42.056 25.6259 42.1913C25.3858 42.3281 25.1881 42.5293 25.0546 42.7726C24.9208 43.0345 24.851 43.3248 24.851 43.6194C24.851 43.9141 24.9208 44.2044 25.0546 44.4663C25.1874 44.7094 25.3854 44.9099 25.6259 45.045C25.8736 45.184 26.1523 45.257 26.4358 45.257C26.7192 45.257 26.998 45.184 27.2456 45.045C27.4854 44.9099 27.6825 44.7093 27.8143 44.4663C27.9556 44.2067 28.0269 43.9142 28.0213 43.6181Z" fill="white"/>
<path d="M20.0276 46.1818H18.8613V41.0742H20.0276V43.1379H20.8689L22.2002 41.0742H23.4398L21.7809 43.5421L23.4896 46.1818H22.1557L20.8374 44.1261H20.0276V46.1818Z" fill="white"/>
<path d="M18.1088 41.891L17.3566 42.5912C17.2021 42.402 17.0075 42.2501 16.7871 42.1467C16.5666 42.0434 16.326 41.9912 16.0829 41.9941C15.7892 41.9884 15.4992 42.0604 15.2416 42.2028C14.9996 42.3377 14.7999 42.5381 14.6651 42.7815C14.5313 43.0434 14.4615 43.3337 14.4615 43.6284C14.4615 43.923 14.5313 44.2133 14.6651 44.4752C14.7999 44.7186 14.9996 44.919 15.2416 45.0539C15.499 45.1971 15.789 45.27 16.0829 45.2653C16.327 45.2678 16.5685 45.2144 16.7891 45.1092C17.0098 45.0039 17.2038 44.8495 17.3566 44.6575L18.1088 45.3577C17.8696 45.6546 17.5618 45.8878 17.2125 46.0368C16.8345 46.1975 16.4276 46.2776 16.0174 46.272C15.5298 46.2795 15.0483 46.1622 14.6179 45.9311C14.2069 45.7159 13.8638 45.3892 13.6272 44.9878C13.3916 44.5736 13.2676 44.1045 13.2676 43.627C13.2676 43.1496 13.3916 42.6804 13.6272 42.2662C13.8626 41.8665 14.2039 41.5408 14.6126 41.3256C15.0468 41.091 15.5327 40.9711 16.0252 40.9768C16.4334 40.9716 16.8384 41.0507 17.2151 41.2093C17.5619 41.3579 17.8683 41.588 18.1088 41.8805" fill="white"/>
<path d="M12.3547 42.2732C12.7109 42.8643 12.8196 43.5739 12.657 44.2458C12.4943 44.9177 12.0735 45.497 11.4872 45.8562L11.364 45.9275C10.9234 46.1527 10.4363 46.27 9.94225 46.27C9.44822 46.27 8.96114 46.1527 8.52048 45.9275C8.11046 45.7098 7.76774 45.3825 7.52982 44.9816C7.29405 44.5698 7.16992 44.1028 7.16992 43.6274C7.16992 43.152 7.29405 42.6849 7.52982 42.2732C7.76699 41.8716 8.1099 41.5442 8.52048 41.3273C8.96144 41.1031 9.44841 40.9863 9.94225 40.9863C10.4361 40.9863 10.9231 41.1031 11.364 41.3273C11.773 41.5465 12.1153 41.8734 12.3547 42.2732ZM11.5318 43.6181C11.5374 43.3229 11.466 43.0313 11.3247 42.7726C11.1901 42.5274 10.9893 42.3259 10.7455 42.1913C10.4967 42.056 10.2184 41.9852 9.9357 41.9852C9.65299 41.9852 9.37471 42.056 9.12588 42.1913C8.88708 42.3289 8.69036 42.53 8.55717 42.7726C8.42338 43.0345 8.35358 43.3248 8.35358 43.6194C8.35358 43.9141 8.42338 44.2044 8.55717 44.4663C8.68975 44.7087 8.88668 44.9091 9.12588 45.045C9.3735 45.184 9.65225 45.257 9.9357 45.257C10.2192 45.257 10.4979 45.184 10.7455 45.045C10.9858 44.9106 11.1831 44.7098 11.3142 44.4663C11.4592 44.2077 11.5342 43.9152 11.5318 43.6181Z" fill="white"/>
<path d="M3.1447 45.6428L1.65347 43.1828V46.1818H0.552734V41.0742H1.52243L3.41988 44.2503L5.2885 41.0742H6.25819L6.26606 46.1818H5.1627L5.15746 43.1246L3.66623 45.6428H3.1447Z" fill="white"/>
<path d="M0.000648499 36.4023H67.334V37.9597H0.000648499V36.4023Z" fill="white"/>
<path d="M201.999 36.4023H134.666V37.9597H201.999V36.4023Z" fill="white"/>
<path d="M134.765 36.4023H67.2109V37.9599H134.765V36.4023Z" fill="white"/>
</g>
<defs>
<clipPath id="clip0_17_10862">
<rect width="202" height="60" fill="white" transform="translate(0 0.5)"/>
</clipPath>
</defs>
</svg>
